<?xml version="1.0" standalone="no"?>
<!DOCTYPE svg PUBLIC "-//W3C//DTD SVG 20010904//EN"
 "http://www.w3.org/TR/2001/REC-SVG-20010904/DTD/svg10.dtd">
<svg version="1.0" xmlns="http://www.w3.org/2000/svg"
 width="177.000000pt" height="177.000000pt" viewBox="0 0 177.000000 177.000000"
 preserveAspectRatio="xMidYMid meet">
<metadata>
Created by potrace 1.11, written by Peter Selinger 2001-2013
</metadata>
<g transform="translate(0.000000,177.000000) scale(0.100000,-0.100000)"
fill="#000000" stroke="none">
<path d="M540 1428 c-49 -13 -82 -40 -106 -84 -11 -22 -42 -76 -68 -121 -52
-88 -59 -128 -36 -214 14 -51 69 -157 113 -214 48 -63 176 -187 246 -238 194
-144 412 -217 545 -182 40 10 63 27 136 100 48 48 97 106 108 129 76 155 -112
453 -419 662 -93 63 -147 91 -244 127 -113 41 -205 53 -275 35z"/>
</g>
</svg>
