<?xml version="1.0" standalone="no"?>
<!DOCTYPE svg PUBLIC "-//W3C//DTD SVG 20010904//EN"
 "http://www.w3.org/TR/2001/REC-SVG-20010904/DTD/svg10.dtd">
<svg version="1.0" xmlns="http://www.w3.org/2000/svg"
 width="700.000000pt" height="700.000000pt" viewBox="0 0 700.000000 700.000000"
 preserveAspectRatio="xMidYMid meet">
<metadata>
Created by potrace 1.11, written by Peter Selinger 2001-2013
</metadata>
<g transform="translate(0.000000,700.000000) scale(0.100000,-0.100000)"
fill="#000000" stroke="none">
<path d="M3215 6989 c-1172 -100 -2188 -754 -2774 -1786 -217 -383 -364 -845
-422 -1328 -18 -145 -18 -605 0 -750 101 -839 449 -1551 1042 -2131 567 -553
1260 -879 2074 -976 144 -17 586 -17 730 0 553 66 1032 231 1486 513 210 130
458 325 589 463 l34 36 -279 280 c-154 154 -284 280 -288 280 -5 0 -49 -37
-98 -83 -691 -634 -1687 -857 -2599 -580 -419 127 -789 351 -1110 672 -446
446 -702 979 -776 1611 -20 174 -15 517 11 673 77 483 246 883 532 1260 100
131 359 390 490 490 485 368 1042 557 1643 557 427 0 800 -87 1185 -275 237
-116 450 -261 633 -430 82 -77 83 -77 104 -59 12 11 140 137 284 281 157 157
261 268 258 275 -9 21 -201 191 -314 279 -484 377 -1052 619 -1655 703 -249
35 -546 45 -780 25z"/>
<path d="M3320 5874 c-160 -18 -230 -29 -330 -50 -706 -154 -1306 -626 -1626
-1279 -406 -829 -298 -1804 282 -2536 74 -95 268 -289 363 -363 348 -276 732
-440 1186 -507 135 -21 501 -18 645 5 484 75 933 291 1280 614 l65 60 -90 91
c-49 50 -93 91 -98 91 -5 0 -44 -31 -88 -70 -101 -89 -205 -166 -316 -234
-905 -550 -2082 -340 -2745 492 -448 562 -577 1323 -341 2007 208 600 698
1090 1298 1298 727 252 1534 89 2106 -425 42 -37 79 -68 82 -68 3 0 47 41 97
92 l90 92 -27 29 c-16 16 -71 65 -123 109 -331 279 -744 464 -1185 533 -95 15
-450 28 -525 19z"/>
</g>
</svg>
