<svg width="239" height="129" viewBox="0 0 239 129" fill="none" xmlns="http://www.w3.org/2000/svg">
<g filter="url(#filter0_i)">
<path d="M6.307 92.3708V21.7324H31.0499C39.6209 21.7324 46.122 23.3819 50.553 26.6809C54.9841 29.9476 57.1997 34.7507 57.1997 41.09C57.1997 44.5508 56.3102 47.6072 54.5313 50.2594C52.7524 52.8793 50.2781 54.8037 47.1085 56.0328C50.7309 56.9384 53.5772 58.7658 55.6472 61.515C57.7495 64.2642 58.8007 67.6279 58.8007 71.6062C58.8007 78.3984 56.6336 83.541 52.2996 87.0341C47.9656 90.5272 41.7879 92.3061 33.7667 92.3708H6.307ZM20.8616 61.612V80.6786H33.3301C36.7585 80.6786 39.4268 79.87 41.3351 78.2528C43.2757 76.6033 44.246 74.3392 44.246 71.4607C44.246 64.9919 40.8985 61.7091 34.2034 61.612H20.8616ZM20.8616 51.3268H31.632C38.974 51.1974 42.645 48.2703 42.645 42.5455C42.645 39.3435 41.7071 37.0471 39.8311 35.6563C37.9876 34.2332 35.0605 33.5216 31.0499 33.5216H20.8616V51.3268ZM112.265 61.7576H84.3198V80.6786H117.116V92.3708H69.7651V21.7324H117.019V33.5216H84.3198V50.3565H112.265V61.7576ZM168.154 61.7576H140.21V80.6786H173.006V92.3708H125.655V21.7324H172.909V33.5216H140.21V50.3565H168.154V61.7576ZM207.694 66.5121H196.099V92.3708H181.545V21.7324H207.791C216.136 21.7324 222.573 23.5921 227.101 27.3116C231.629 31.0311 233.893 36.287 233.893 43.0791C233.893 47.8983 232.842 51.9251 230.739 55.1595C228.669 58.3615 225.516 60.9166 221.279 62.8249L236.561 91.6916V92.3708H220.939L207.694 66.5121ZM196.099 54.7228H207.84C211.495 54.7228 214.325 53.801 216.33 51.9575C218.335 50.0815 219.338 47.5102 219.338 44.2435C219.338 40.9121 218.384 38.2923 216.476 36.384C214.6 34.4757 211.705 33.5216 207.791 33.5216H196.099V54.7228Z" fill="#1E1C17"/>
</g>
<path d="M145.68 109.483H134.201V66.6536H145.68V109.483ZM133.528 55.5702C133.528 53.8549 134.096 52.443 135.23 51.3347C136.391 50.2264 137.962 49.6722 139.941 49.6722C141.894 49.6722 143.451 50.2264 144.612 51.3347C145.773 52.443 146.353 53.8549 146.353 55.5702C146.353 57.3118 145.76 58.7369 144.572 59.8452C143.411 60.9535 141.867 61.5077 139.941 61.5077C138.014 61.5077 136.457 60.9535 135.27 59.8452C134.109 58.7369 133.528 57.3118 133.528 55.5702ZM165.67 66.6536L166.026 71.6016C169.088 67.7751 173.191 65.8619 178.337 65.8619C182.876 65.8619 186.254 67.1946 188.47 69.8599C190.687 72.5252 191.822 76.5099 191.875 81.8141V109.483H180.435V82.0912C180.435 79.6634 179.907 77.9086 178.852 76.8266C177.796 75.7183 176.041 75.1641 173.587 75.1641C170.367 75.1641 167.953 76.5363 166.343 79.2808V109.483H154.903V66.6536H165.67Z" fill="#EDD06D"/>
<path d="M95.0465 102.881C109.814 114.48 126.264 118.179 131.79 111.144L139.057 103.626L139.359 99.1187L139.406 93.8545L134.294 83.065L124.56 72.4016L119.539 68.0609L103.575 60.0717L92.9834 57.6656L83.587 60.1715L78.3133 69.1416C72.7877 76.1766 80.2794 91.2822 95.0465 102.881Z" fill="url(#paint0_linear)"/>
<ellipse cx="109.844" cy="83.5849" rx="27.0035" ry="12.7171" transform="rotate(38.1477 109.844 83.5849)" fill="#837542"/>
<ellipse cx="109.496" cy="84.004" rx="27.0035" ry="11.9506" transform="rotate(38.1477 109.496 84.004)" fill="#EDD06D"/>
<path fill-rule="evenodd" clip-rule="evenodd" d="M101.546 94.0555C116.888 106.106 133.805 110.171 139.33 103.137C144.856 96.1016 136.898 80.63 121.556 68.5797C106.214 56.5295 89.2977 52.4638 83.7721 59.4987C78.2466 66.5337 86.2043 82.0053 101.546 94.0555ZM104.905 90.4082C116.951 99.8693 130.232 103.061 134.571 97.538C138.909 92.0146 132.661 79.8672 120.616 70.4061C108.57 60.945 95.2884 57.7529 90.95 63.2763C86.6117 68.7997 92.8596 80.947 104.905 90.4082Z" fill="#FFFB9F"/>
<path d="M85.39 90.2851C84.9414 96.4865 82.6456 101.368 78.5025 104.931C74.3858 108.494 68.9496 110.275 62.194 110.275C54.805 110.275 48.9862 107.794 44.7376 102.833C40.5153 97.8455 38.4042 91.0108 38.4042 82.3287V78.8058C38.4042 73.2641 39.3806 68.3821 41.3334 64.1598C43.2862 59.9376 46.0702 56.7049 49.6856 54.4618C53.3273 52.1923 57.5495 51.0576 62.3523 51.0576C69.0024 51.0576 74.3594 52.8389 78.4233 56.4014C82.4872 59.9639 84.8359 64.9647 85.4692 71.4036H73.5941C73.3038 67.6828 72.2615 64.9911 70.467 63.3286C68.6989 61.6397 65.994 60.7952 62.3523 60.7952C58.394 60.7952 55.4252 62.2202 53.446 65.0702C51.4932 67.8939 50.4904 72.2877 50.4376 78.2516V82.6058C50.4376 88.8337 51.3745 93.3858 53.2481 96.2622C55.1481 99.1386 58.1301 100.577 62.194 100.577C65.8621 100.577 68.5934 99.7456 70.3878 98.083C72.2087 96.3941 73.251 93.7948 73.5149 90.2851H85.39Z" fill="#EDD06D"/>
<defs>
<filter id="filter0_i" x="6.30688" y="21.7324" width="230.254" height="75.541" filterUnits="userSpaceOnUse" color-interpolation-filters="sRGB">
<feFlood flood-opacity="0" result="BackgroundImageFix"/>
<feBlend mode="normal" in="SourceGraphic" in2="BackgroundImageFix" result="shape"/>
<feColorMatrix in="SourceAlpha" type="matrix" values="0 0 0 0 0 0 0 0 0 0 0 0 0 0 0 0 0 0 127 0" result="hardAlpha"/>
<feOffset dy="4.90256"/>
<feGaussianBlur stdDeviation="2.45128"/>
<feComposite in2="hardAlpha" operator="arithmetic" k2="-1" k3="1"/>
<feColorMatrix type="matrix" values="0 0 0 0 0 0 0 0 0 0 0 0 0 0 0 0 0 0 0.25 0"/>
<feBlend mode="normal" in2="shape" result="effect1_innerShadow"/>
</filter>
<linearGradient id="paint0_linear" x1="79.6914" y1="64.3948" x2="135.999" y2="108.994" gradientUnits="userSpaceOnUse">
<stop stop-color="#7E6526"/>
<stop offset="0.537059" stop-color="#5E4F2D"/>
<stop offset="1" stop-color="#5B4716"/>
</linearGradient>
</defs>
</svg>
