<svg version="1.1" xmlns="http://www.w3.org/2000/svg" xmlns:xlink="http://www.w3.org/1999/xlink" x="0px" y="0px" viewBox="0 0 200 200" enable-background="new 0 0 200 200" xml:space="preserve">
	<g id="Objects">
		<g id="beers">
			<g id="beer_4_">
				<circle fill="#3FCAAD" cx="100" cy="100" r="100"/>
				<path opacity="0.1" d="M200,100c0-0.3,0-0.7,0-1l-69.6-69.6l-4.2,4.1l-8.1-8.1l-10.2,10.2L92.1,19.9L69.6,42.4l23.9,23.9
					L79.1,80.7l24.4,24.4l-27.7,27.7l26.4,26.4l-19.3,19.3H68.4l20.9,20.9c3.5,0.4,7.1,0.6,10.7,0.6C155.2,200,200,155.2,200,100z"/>
				<g>
					<g>
						<path fill="#FFFFFF" d="M70.7,35.3c-3,17.8-8.7,40.5-8.7,58.8c0,24.7,11.5,46.6,35.4,46.6c24,0,35.4-21.9,35.4-46.6
							c0-18.3-5.7-41-8.7-58.8H70.7z"/>
						<g id="icon_10_">
							<g>
								<path fill="#FFFFFF" d="M127.2,174.9c0-4.2-59.6-4.2-59.6,0c0,0.3,0,1.5,0,1.8c0,4.2,13.3,7.6,29.8,7.6
									c16.4,0,29.8-3.4,29.8-7.6C127.2,176.5,127.2,175.2,127.2,174.9z"/>
								<path fill="#FFFFFF" d="M104.1,166.9c-3.9-0.7-6.7-1.2-6.7-1.2s-2.8,0.4-6.7,1.2c-8.5,1.7-22.2,4.9-23.1,7.8
									c0.9,3.7,13.8,6.7,29.7,6.7c15.9,0,28.9-2.9,29.7-6.7C126.3,171.8,112.6,168.6,104.1,166.9z"/>
								<path fill="#FFFFFF" d="M92.2,143.7c0,7.6,0,24.6,0,24.9c0,1.4,2.3,2.6,5.2,2.6c2.9,0,5.2-1.2,5.2-2.6c0-0.3,0-17.3,0-24.9
									H92.2z"/>
								<path fill="#FFFFFF" d="M92.2,129.9c0,7.4,0,15,0,15.2c0,1.4,2.3,2.5,5.2,2.5c2.9,0,5.2-1.1,5.2-2.5c0-0.3,0-7.8,0-15.2H92.2
									z"/>
							</g>
						</g>
						<path fill="#FFAA00" d="M71.6,41.7c-2.7,18.1-7.2,38.1-7.2,54.9c0,23,12.2,40.4,33,40.4c20.8,0,32.8-17.3,32.8-40.4
							c0-16.8-3.5-36.7-6.2-54.9H71.6z"/>
						<g>
							<circle opacity="0.2" fill="#F6F8FB" cx="86.2" cy="124.3" r="2.4"/>
							<circle opacity="0.2" fill="#F6F8FB" cx="101" cy="97.5" r="2.4"/>
							<circle opacity="0.2" fill="#F6F8FB" cx="113.6" cy="115.5" r="2.4"/>
							<circle opacity="0.2" fill="#F6F8FB" cx="77.5" cy="61.8" r="2.4"/>
							<circle opacity="0.2" fill="#F6F8FB" cx="74" cy="102.9" r="2.4"/>
							<circle opacity="0.2" fill="#F6F8FB" cx="94.4" cy="68.9" r="2.4"/>
							<circle opacity="0.2" fill="#F6F8FB" cx="108.8" cy="57.8" r="1.6"/>
							<circle opacity="0.2" fill="#F6F8FB" cx="76.4" cy="80.6" r="1.6"/>
							<circle opacity="0.2" fill="#F6F8FB" cx="119.1" cy="77.1" r="1.6"/>
							<circle opacity="0.2" fill="#F6F8FB" cx="108.8" cy="124.3" r="1.6"/>
							<circle opacity="0.2" fill="#F6F8FB" cx="113.6" cy="93.4" r="2.1"/>
							<circle opacity="0.2" fill="#F6F8FB" cx="84.9" cy="65" r="2.1"/>
							<circle opacity="0.2" fill="#F6F8FB" cx="87.8" cy="102.9" r="1.5"/>
							<circle opacity="0.2" fill="#F6F8FB" cx="103.1" cy="80.6" r="0.8"/>
							<circle opacity="0.2" fill="#F6F8FB" cx="94.9" cy="84.1" r="0.8"/>
							<circle opacity="0.2" fill="#F6F8FB" cx="112.7" cy="34.8" r="0.8"/>
						</g>
						<path opacity="0.2" fill="#F6F8FB" d="M77.1,102.9c0-16.8,4.9-40.6,7.6-58.8h38.5c-0.1-0.8-0.3-1.7-0.4-2.5H71.9
							c-2.7,18.1-7.6,42-7.6,58.8c0,22.7,12,36.9,32.1,37.4C84.1,132.7,77.1,120.3,77.1,102.9z"/>
					</g>
					<g>
						<circle fill="#F6F8FB" cx="77.1" cy="36.2" r="12.9"/>
						<circle fill="#F6F8FB" cx="95.6" cy="36.2" r="10.7"/>
						<circle fill="#F6F8FB" cx="86.5" cy="27.3" r="9.2"/>
						<circle fill="#F6F8FB" cx="110.2" cy="33.3" r="11.1"/>
						<path fill="#F6F8FB" d="M133.4,36.2c0-5-4-9-9-9c-5,0-9,4-9,9c0,5,4,9,9,9C129.4,45.2,133.4,41.2,133.4,36.2z"/>
						<circle fill="#F6F8FB" cx="131.4" cy="44.4" r="6.6"/>
						<circle fill="#F6F8FB" cx="124.4" cy="49.1" r="5.8"/>
						<path fill="#F6F8FB" d="M132.3,58.2c0-2.9-2.3-5.2-5.2-5.2s-5.2,2.3-5.2,5.2c0,2.9,2.3,5.2,5.2,5.2S132.3,61.1,132.3,58.2z"/>
						<circle fill="#F6F8FB" cx="128.2" cy="49.7" r="5.2"/>
					</g>
				</g>
			</g>
		</g>
	</g>
</svg>
