<svg version="1.1" xmlns="http://www.w3.org/2000/svg" xmlns:xlink="http://www.w3.org/1999/xlink" x="0px" y="0px" width="200px"
	 height="200px" viewBox="0 0 200 200" enable-background="new 0 0 200 200" xml:space="preserve">
<g id="Background" display="none">
	<rect x="-300" y="-284.6" display="inline" fill="#FFFFFF" width="800" height="800"/>
</g>
<g id="Objects">
	<g id="beers">
		<g id="beer_8_" display="none">
			<circle display="inline" fill="#DAA74E" cx="-152" cy="-140.3" r="100"/>
			<path display="inline" opacity="0.1" d="M-52-139.9l-73.4-73.4l-60.7,60.7l20.9,20.9l-9.2,9.2l28.7,28.7l-37,37l15.4,15.4
				c5,0.8,10.1,1.2,15.4,1.2C-96.9-40.3-52.3-84.8-52-139.9z"/>
			<g display="inline">
				<path fill="#F0F2F5" d="M-127.6-58v-4.3h-12c-4.5-0.6-9.9-1-15.8-1c-5.9,0-11.3,0.4-15.8,1H-183c-0.1,0.1-0.2,0.3-0.2,0.4v4.2
					l0,0c0.3,3,12.6,5.4,27.8,5.4c15.4,0,27.8-2.5,27.8-5.5C-127.6-57.9-127.6-58-127.6-58z"/>
				<path fill="#F6F8FB" d="M-127.2-131.7c11.7-36.8,6.7-67.7,6.7-67.7l-33.9-1.7v-0.1l-1,0l-1,0v0.1l-33.9,1.7
					c0,0-4.9,30.9,6.7,67.7c11.3,35.7,11.2,50.3,1.3,68.4c-0.6,0.5-1,0.9-1,1.4c0,3.1,12.5,5.5,27.8,5.5c15.4,0,27.8-2.5,27.8-5.5
					c0-0.5-0.3-1-1-1.4C-138.4-81.4-138.5-96-127.2-131.7z"/>
				<path fill="#FFAA00" d="M-129.7-131.7c10.6-36.8,6.1-67.7,6.1-67.7l-31-1.7v-0.1l-0.9,0l-0.9,0v0.1l-31,1.7
					c0,0-4.5,30.9,6.1,67.7c10.3,35.7,10.2,50.3,1.2,68.4c-0.6,0.5-0.9,0.9-0.9,1.4c0,3.1,11.4,5.5,25.4,5.5c14,0,25.4-2.5,25.4-5.5
					c0-0.5-0.3-1-0.9-1.4C-139.9-81.4-140-96-129.7-131.7z"/>
				<g>
					<circle opacity="0.2" fill="#F6F8FB" cx="-164.7" cy="-120.8" r="2.4"/>
					<circle opacity="0.2" fill="#F6F8FB" cx="-149.8" cy="-147.6" r="2.4"/>
					<circle opacity="0.2" fill="#F6F8FB" cx="-137.3" cy="-129.6" r="2.4"/>
					<circle opacity="0.2" fill="#F6F8FB" cx="-173.4" cy="-183.3" r="2.4"/>
					<circle opacity="0.2" fill="#F6F8FB" cx="-176.9" cy="-142.2" r="2.4"/>
					<circle opacity="0.2" fill="#F6F8FB" cx="-156.5" cy="-176.2" r="2.4"/>
					<circle opacity="0.2" fill="#F6F8FB" cx="-151.2" cy="-81" r="1.6"/>
					<circle opacity="0.2" fill="#F6F8FB" cx="-174.5" cy="-164.5" r="1.6"/>
					<circle opacity="0.2" fill="#F6F8FB" cx="-131.7" cy="-167.9" r="1.6"/>
					<circle opacity="0.2" fill="#F6F8FB" cx="-142.1" cy="-120.8" r="1.6"/>
					<circle opacity="0.2" fill="#F6F8FB" cx="-131.7" cy="-213.3" r="2.1"/>
					<circle opacity="0.2" fill="#F6F8FB" cx="-160.7" cy="-89.1" r="2.1"/>
					<circle opacity="0.2" fill="#F6F8FB" cx="-163.1" cy="-142.2" r="1.5"/>
					<circle opacity="0.2" fill="#F6F8FB" cx="-147.8" cy="-164.5" r="0.8"/>
					<circle opacity="0.2" fill="#F6F8FB" cx="-156" cy="-161" r="0.8"/>
					<circle opacity="0.2" fill="#F6F8FB" cx="-138.1" cy="-210.3" r="0.8"/>
				</g>
				<path fill="#EBEEF1" d="M-120.5-199.2c0,3.8-15.6,6.9-34.9,6.9c-19.3,0-34.9-3.1-34.9-6.9c0-3.8,15.6-6.9,34.9-6.9
					C-136.1-206.1-120.5-203-120.5-199.2z"/>
				<path fill="#FBFCFD" d="M-123.1-200c0,3.6-14.5,6.4-32.4,6.4c-17.9,0-32.4-2.9-32.4-6.4c0-3.6,13.7-11.4,31.6-11.4
					C-138.5-211.4-123.1-203.6-123.1-200z"/>
				<g>
					<path opacity="0.7" fill="#F0F2F5" d="M-171.2-200c0-3,9.6-9,23.3-10.9c-2.7-0.4-5.6-0.6-8.5-0.6c-17.9,0-31.6,7.9-31.6,11.4
						c0,3.6,14.5,6.4,32.4,6.4c2.9,0,5.7-0.1,8.4-0.2C-161-194.5-171.2-197-171.2-200z"/>
				</g>
				<g>
					<circle fill="#F6F8FB" cx="-176.8" cy="-200" r="14.1"/>
					<circle fill="#F6F8FB" cx="-164" cy="-205.8" r="9.6"/>
					<circle fill="#F6F8FB" cx="-147.4" cy="-207.1" r="9.6"/>
					<circle fill="#F6F8FB" cx="-160.7" cy="-196.3" r="10.9"/>
					<ellipse fill="#F6F8FB" cx="-153.2" cy="-201.2" rx="14.8" ry="12.9"/>
					<ellipse fill="#F6F8FB" cx="-135.8" cy="-202.2" rx="15.4" ry="14.7"/>
					<circle fill="#F6F8FB" cx="-122.9" cy="-194.4" r="7.8"/>
					<ellipse fill="#F6F8FB" cx="-120.3" cy="-184.2" rx="7.6" ry="10.6"/>
				</g>
				<path opacity="0.2" fill="#F6F8FB" d="M-180.8-61.9c0,2.3,6.3,4.2,15.3,5.1c3.2-30.1,0.9-50.8-2.5-65.8c-6-26,0-69.6,0-69.6
					s-0.9-1-8.1-7.8l-11.1,0.6c0,0-4.5,30.9,6.1,67.7c10.3,35.7,10.2,50.3,1.2,68.4C-180.5-62.9-180.8-62.4-180.8-61.9z"/>
			</g>
		</g>
		<g id="beer_7_" display="none">
			<circle display="inline" fill="#FA3D2A" cx="352" cy="100" r="100"/>
			<path display="inline" opacity="0.1" d="M425.1,52.2l-18.9-18.9L391,48.5l-4.6-4.6l-8.2,8.2L363,37l-13.2,13.2l-1-1l-10.2,10.2
				l-5.2-5.2l-14.2,14.2l-37,2.5l-15.7,29l14.2,26.7L270,137.3l60.3,60.3c7,1.6,14.3,2.4,21.7,2.4c55.2,0,100-44.8,100-100
				c0-13.4-2.6-26.2-7.4-37.8l-14.7-14.7L425.1,52.2z"/>
			<g display="inline">
				<g>
					<g>
						<path fill="#FFFFFF" d="M425.4,107.9l-7.2-7.5c10-9.5,14.5-16.6,13.1-20.7l-8.1-23.8c-0.2-0.6-0.4-1.2-2.2-0.6l-14.2,4.9
							l-3.4-9.8l14.2-4.9c6.8-2.3,13.2,0.6,15.4,7.1l8.1,23.8C444.1,85,439.3,94.7,425.4,107.9z"/>
					</g>
					<path fill="#FFFFFF" d="M347.5,56.4l21.7,79.2c1.2,3.4,4.9,5.2,8.3,4l51.2-17.5c3.4-1.2,5.2-4.9,4-8.3l-31.2-76L347.5,56.4z"/>
					<path fill="#FFAA00" d="M348.7,49.6l21.4,80.9c1.1,3.2,4.5,4.9,7.7,3.8l47.9-16.4c3.2-1.1,4.9-4.5,3.8-7.7l-32.5-77.1
						L348.7,49.6z"/>
					<g>
						<circle opacity="0.2" fill="#F6F8FB" cx="380.3" cy="116.7" r="2.4"/>
						<circle opacity="0.2" fill="#F6F8FB" cx="394.9" cy="89.8" r="2.4"/>
						<circle opacity="0.2" fill="#F6F8FB" cx="407.6" cy="107.7" r="2.4"/>
						<circle opacity="0.2" fill="#F6F8FB" cx="371.1" cy="54.2" r="2.4"/>
						<circle opacity="0.2" fill="#F6F8FB" cx="367.9" cy="95.4" r="2.4"/>
						<circle opacity="0.2" fill="#F6F8FB" cx="388.1" cy="61.3" r="2.4"/>
						<circle opacity="0.2" fill="#F6F8FB" cx="397.2" cy="100.7" r="1.6"/>
						<circle opacity="0.2" fill="#F6F8FB" cx="370.2" cy="73.1" r="1.6"/>
						<circle opacity="0.2" fill="#F6F8FB" cx="412.9" cy="69.3" r="1.6"/>
						<circle opacity="0.2" fill="#F6F8FB" cx="402.9" cy="116.5" r="1.6"/>
						<circle opacity="0.2" fill="#F6F8FB" cx="407.4" cy="74.6" r="2.1"/>
						<circle opacity="0.2" fill="#F6F8FB" cx="377.5" cy="79.9" r="2.1"/>
						<circle opacity="0.2" fill="#F6F8FB" cx="381.7" cy="95.3" r="1.5"/>
						<circle opacity="0.2" fill="#F6F8FB" cx="396.8" cy="72.9" r="0.8"/>
						<circle opacity="0.2" fill="#F6F8FB" cx="388.7" cy="76.4" r="0.8"/>
						<circle opacity="0.2" fill="#F6F8FB" cx="401" cy="77.6" r="0.8"/>
					</g>
					<path opacity="0.2" fill="#F6F8FB" d="M366.2,53.6l-11.1,3.8l18.1,68.6c0.9,2.7,3.9,4.1,6.5,3.2l11-3.8L366.2,53.6z"/>
					<path opacity="0.2" fill="#F6F8FB" d="M395.8,43.5L382.4,48l24.6,71.9l13.5-4.6c2.1-0.7,3.4-2.7,3.5-4.7L395.8,43.5z"/>
					<g>
						<circle fill="#F6F8FB" cx="350.5" cy="55.2" r="13"/>
						<circle fill="#F6F8FB" cx="368.2" cy="49.1" r="10.8"/>
						<circle fill="#F6F8FB" cx="356.6" cy="43.7" r="9.2"/>
						<circle fill="#F6F8FB" cx="381.1" cy="41.6" r="11.2"/>
						<circle fill="#F6F8FB" cx="395.5" cy="39.8" r="9"/>
						<circle fill="#F6F8FB" cx="401.4" cy="38" r="6.6"/>
						<circle fill="#F6F8FB" cx="404.8" cy="48" r="7.2"/>
						<circle fill="#F6F8FB" cx="399.7" cy="52" r="5.8"/>
						<circle fill="#F6F8FB" cx="405.2" cy="59.8" r="5.3"/>
					</g>
				</g>
				<g>
					<g>
						<path fill="#FFFFFF" d="M277.1,125.4l7.6-7.1c-9.4-10-13.5-17.4-11.9-21.4l9.5-23.3c0.3-0.6,0.5-1.2,2.2-0.5l13.9,5.7l3.9-9.6
							l-13.9-5.7c-6.7-2.7-13.2-0.2-15.8,6.2L263.2,93C259.8,101.5,264,111.5,277.1,125.4z"/>
					</g>
					<path fill="#FFFFFF" d="M357.8,78.5l-26.3,77.8c-1.4,3.3-5.2,4.9-8.5,3.6l-50.1-20.5c-3.3-1.4-4.9-5.2-3.6-8.5l35.6-74
						L357.8,78.5z"/>
					<path fill="#FFAA00" d="M357.1,72.1l-25.9,79.3c-1.3,3.1-4.8,4.6-7.9,3.3l-46.7-19.1c-3.1-1.3-4.6-4.8-3.3-7.9l36.8-74.8
						L357.1,72.1z"/>
					<g>
						<circle opacity="0.2" fill="#F6F8FB" cx="310.7" cy="142" r="2.4"/>
						<circle opacity="0.2" fill="#F6F8FB" cx="325.3" cy="115.1" r="2.4"/>
						<circle opacity="0.2" fill="#F6F8FB" cx="338" cy="133" r="2.4"/>
						<circle opacity="0.2" fill="#F6F8FB" cx="301.5" cy="79.5" r="2.4"/>
						<circle opacity="0.2" fill="#F6F8FB" cx="298.3" cy="120.7" r="2.4"/>
						<circle opacity="0.2" fill="#F6F8FB" cx="318.5" cy="86.5" r="2.4"/>
						<circle opacity="0.2" fill="#F6F8FB" cx="332.7" cy="75.3" r="1.6"/>
						<circle opacity="0.2" fill="#F6F8FB" cx="300.5" cy="98.4" r="1.6"/>
						<circle opacity="0.2" fill="#F6F8FB" cx="343.3" cy="94.6" r="1.6"/>
						<circle opacity="0.2" fill="#F6F8FB" cx="333.3" cy="141.8" r="1.6"/>
						<circle opacity="0.2" fill="#F6F8FB" cx="319" cy="106.2" r="2.1"/>
						<circle opacity="0.2" fill="#F6F8FB" cx="289.2" cy="111.5" r="2.1"/>
						<circle opacity="0.2" fill="#F6F8FB" cx="312.1" cy="120.6" r="1.5"/>
						<circle opacity="0.2" fill="#F6F8FB" cx="327.2" cy="98.2" r="0.8"/>
						<circle opacity="0.2" fill="#F6F8FB" cx="319" cy="101.7" r="0.8"/>
						<circle opacity="0.2" fill="#F6F8FB" cx="312.6" cy="109.2" r="0.8"/>
					</g>
					<path opacity="0.2" fill="#F6F8FB" d="M339.3,74.6l10.8,4.4l-22.1,67.5c-1.1,2.6-4.1,3.9-6.7,2.8l-10.8-4.4L339.3,74.6z"/>
					<path opacity="0.2" fill="#F6F8FB" d="M310.4,62.8l13.1,5.3l-28.7,70.3l-13.2-5.4c-2.1-0.8-3.3-2.9-3.2-4.9L310.4,62.8z"/>
					<g>
						<circle fill="#F6F8FB" cx="354.9" cy="77.1" r="13"/>
						<circle fill="#F6F8FB" cx="337.7" cy="70.1" r="10.8"/>
						<circle fill="#F6F8FB" cx="349.6" cy="65.3" r="9.2"/>
						<circle fill="#F6F8FB" cx="325.2" cy="61.9" r="11.2"/>
						<circle fill="#F6F8FB" cx="310.9" cy="59.1" r="9"/>
						<circle fill="#F6F8FB" cx="305.1" cy="57.1" r="6.6"/>
						<circle fill="#F6F8FB" cx="301.1" cy="66.8" r="7.2"/>
						<circle fill="#F6F8FB" cx="306" cy="71.2" r="5.8"/>
						<circle fill="#F6F8FB" cx="300.1" cy="78.6" r="5.3"/>
					</g>
				</g>
			</g>
		</g>
		<g id="beer_6_" display="none">
			<circle display="inline" fill="#D9A64D" cx="352" cy="334.4" r="100"/>
			<path display="inline" opacity="0.1" d="M327,408.9l25.5,25.5c55-0.2,99.5-44.9,99.5-100c0-0.4,0-0.9,0-1.3l-91.7-91.7L327,408.9
				z"/>
			<g display="inline">
				<path fill="#FFFFFF" d="M363.3,292.9c-2-9.6-2.1-50.2-2.1-50.2h-19.8c0,0-0.1,40.6-2.1,50.2c-3.9,18.6-12.4,26.2-12.4,37.1
					s0,78.9,0,78.9h48.7c0,0,0-68,0-78.9S367.2,311.6,363.3,292.9z"/>
				<path fill="#FFAA00" d="M362.3,293.8c-1.9-9.3-1.9-48.9-1.9-48.9h-18.1c0,0-0.1,39.6-1.9,48.9c-3.6,18.2-11.8,25.5-11.8,36.2
					c0,10.7,0,75.3,0,75.3H374c0,0,0-64.7,0-75.3C374,319.3,365.9,312,362.3,293.8z"/>
				<g>
					<circle opacity="0.2" fill="#F6F8FB" cx="343.9" cy="405.3" r="2.4"/>
					<circle opacity="0.2" fill="#F6F8FB" cx="361" cy="378" r="2.4"/>
					<circle opacity="0.2" fill="#F6F8FB" cx="365.3" cy="395.6" r="2.4"/>
					<circle opacity="0.2" fill="#F6F8FB" cx="337.5" cy="342.2" r="2.4"/>
					<circle opacity="0.2" fill="#F6F8FB" cx="334" cy="383.4" r="2.4"/>
					<circle opacity="0.2" fill="#F6F8FB" cx="354.4" cy="349.4" r="2.4"/>
					<circle opacity="0.2" fill="#F6F8FB" cx="368.8" cy="338.2" r="1.6"/>
					<circle opacity="0.2" fill="#F6F8FB" cx="336.4" cy="361" r="1.6"/>
					<circle opacity="0.2" fill="#F6F8FB" cx="353.7" cy="306.7" r="1.6"/>
					<circle opacity="0.2" fill="#F6F8FB" cx="358.8" cy="402.2" r="1.6"/>
					<circle opacity="0.2" fill="#F6F8FB" cx="353.7" cy="261.4" r="2.1"/>
					<circle opacity="0.2" fill="#F6F8FB" cx="349.3" cy="317.4" r="2.1"/>
					<circle opacity="0.2" fill="#F6F8FB" cx="347.8" cy="383.4" r="1.5"/>
					<circle opacity="0.2" fill="#F6F8FB" cx="363.1" cy="361" r="0.8"/>
					<circle opacity="0.2" fill="#F6F8FB" cx="354.9" cy="364.5" r="0.8"/>
				</g>
				<path opacity="0.2" fill="#F6F8FB" d="M362.7,293.8c-1.9-9.3-2-48.9-2-48.9h-7.1c0,0,0.1,39.6,2,48.9
					c3.7,18.2,11.8,25.5,11.8,36.2c0,10.7,0,76.9,0,76.9h7.1c0,0,0-66.2,0-76.9C374.6,319.3,366.4,312,362.7,293.8z"/>
				<path opacity="0.2" fill="#F6F8FB" d="M348.1,293.8c1.9-9.3,2-48.9,2-48.9h-8.2c0,0-0.1,39.6-2,48.9
					c-3.7,18.2-11.8,25.5-11.8,36.2c0,10.7,0,76.9,0,76.9h8.2c0,0,0-66.2,0-76.9C336.3,319.3,344.4,312,348.1,293.8z"/>
				<g>
					<circle fill="#F8F6E9" cx="343.2" cy="246.1" r="4.4"/>
					<circle fill="#F8F6E9" cx="347.8" cy="247" r="3.5"/>
					<circle fill="#F8F6E9" cx="350.7" cy="244.2" r="4.7"/>
					<circle fill="#F8F6E9" cx="358.7" cy="246.1" r="3.3"/>
					<circle fill="#F8F6E9" cx="358.1" cy="243.9" r="3.3"/>
					<circle fill="#F8F6E9" cx="359.6" cy="249.8" r="2.8"/>
					<circle fill="#F8F6E9" cx="354.5" cy="244.5" r="4.5"/>
				</g>
			</g>
		</g>
		<g id="beer_5_" display="none">
			<circle display="inline" fill="#23BEDD" cx="-152" cy="100" r="100"/>
			<path display="inline" opacity="0.1" d="M-52,100c0-3.1-0.1-6.1-0.4-9.1l-62.8-62.8l-51.3,51.3l31.2,31.2l-42.4,42.4l12.1,12.1
				l-19.5,19.5l13.6,13.6c6.3,1.2,12.8,1.9,19.4,1.9C-96.8,200-52,155.2-52,100z"/>
			<g display="inline">
				<g>
					<rect x="-185.1" y="32.6" fill="#F6F8FB" width="67.5" height="151.8"/>
					<rect x="-182.9" y="41.3" fill="#FFAA00" width="63.2" height="138.4"/>
					<rect x="-183.8" y="41.3" opacity="0.2" fill="#F6F8FB" width="17.7" height="138.4"/>
					<rect x="-136.5" y="41.3" opacity="0.2" fill="#F6F8FB" width="17.7" height="138.4"/>
					<g>
						<circle opacity="0.2" fill="#F6F8FB" cx="-163.1" cy="154.6" r="2.4"/>
						<circle opacity="0.2" fill="#F6F8FB" cx="-148.3" cy="127.9" r="2.4"/>
						<circle opacity="0.2" fill="#F6F8FB" cx="-135.7" cy="145.8" r="2.4"/>
						<circle opacity="0.2" fill="#F6F8FB" cx="-171.9" cy="92.1" r="2.4"/>
						<circle opacity="0.2" fill="#F6F8FB" cx="-175.3" cy="133.2" r="2.4"/>
						<circle opacity="0.2" fill="#F6F8FB" cx="-154.9" cy="99.2" r="2.4"/>
						<circle opacity="0.2" fill="#F6F8FB" cx="-140.5" cy="88.1" r="1.6"/>
						<circle opacity="0.2" fill="#F6F8FB" cx="-172.9" cy="110.9" r="1.6"/>
						<circle opacity="0.2" fill="#F6F8FB" cx="-130.2" cy="107.5" r="1.6"/>
						<circle opacity="0.2" fill="#F6F8FB" cx="-140.5" cy="154.6" r="1.6"/>
						<circle opacity="0.2" fill="#F6F8FB" cx="-176.8" cy="170.9" r="2.4"/>
						<circle opacity="0.2" fill="#F6F8FB" cx="-131.4" cy="170.9" r="2.4"/>
						<circle opacity="0.2" fill="#F6F8FB" cx="-152" cy="161.5" r="1.6"/>
						<circle opacity="0.2" fill="#F6F8FB" cx="-130.2" cy="62.1" r="2.1"/>
						<circle opacity="0.2" fill="#F6F8FB" cx="-160" cy="67.2" r="2.1"/>
						<circle opacity="0.2" fill="#F6F8FB" cx="-161.5" cy="133.2" r="1.5"/>
						<circle opacity="0.2" fill="#F6F8FB" cx="-146.2" cy="110.9" r="0.8"/>
						<circle opacity="0.2" fill="#F6F8FB" cx="-154.4" cy="114.4" r="0.8"/>
						<circle opacity="0.2" fill="#F6F8FB" cx="-136.6" cy="65.1" r="0.8"/>
					</g>
				</g>
				<g>
					<circle fill="#F6F8FB" cx="-177.5" cy="32.8" r="14.4"/>
					<circle fill="#F6F8FB" cx="-164.4" cy="26.8" r="9.8"/>
					<circle fill="#F6F8FB" cx="-147.6" cy="25.5" r="9.8"/>
					<circle fill="#F6F8FB" cx="-161.1" cy="36.6" r="11.1"/>
					<ellipse fill="#F6F8FB" cx="-153.4" cy="31.6" rx="15.1" ry="13.2"/>
					<ellipse fill="#F6F8FB" cx="-135.6" cy="30.6" rx="15.7" ry="15"/>
					<path fill="#F6F8FB" d="M-112.2,35.6c0-6-4.9-10.9-10.9-10.9c-6,0-10.9,4.9-10.9,10.9c0,6,4.9,10.9,10.9,10.9
						C-117,46.5-112.2,41.6-112.2,35.6z"/>
					<ellipse fill="#F6F8FB" cx="-119.9" cy="48.9" rx="7.7" ry="10.8"/>
				</g>
			</g>
		</g>
		<g id="beer_4_">
			<circle fill="#3FCAAD" cx="100" cy="100" r="100"/>
			<path opacity="0.1" d="M200,100c0-0.3,0-0.7,0-1l-69.6-69.6l-4.2,4.1l-8.1-8.1l-10.2,10.2L92.1,19.9L69.6,42.4l23.9,23.9
				L79.1,80.7l24.4,24.4l-27.7,27.7l26.4,26.4l-19.3,19.3H68.4l20.9,20.9c3.5,0.4,7.1,0.6,10.7,0.6C155.2,200,200,155.2,200,100z"/>
			<g>
				<g>
					<path fill="#FFFFFF" d="M70.7,35.3c-3,17.8-8.7,40.5-8.7,58.8c0,24.7,11.5,46.6,35.4,46.6c24,0,35.4-21.9,35.4-46.6
						c0-18.3-5.7-41-8.7-58.8H70.7z"/>
					<g id="icon_10_">
						<g>
							<path fill="#FFFFFF" d="M127.2,174.9c0-4.2-59.6-4.2-59.6,0c0,0.3,0,1.5,0,1.8c0,4.2,13.3,7.6,29.8,7.6
								c16.4,0,29.8-3.4,29.8-7.6C127.2,176.5,127.2,175.2,127.2,174.9z"/>
							<path fill="#FFFFFF" d="M104.1,166.9c-3.9-0.7-6.7-1.2-6.7-1.2s-2.8,0.4-6.7,1.2c-8.5,1.7-22.2,4.9-23.1,7.8
								c0.9,3.7,13.8,6.7,29.7,6.7c15.9,0,28.9-2.9,29.7-6.7C126.3,171.8,112.6,168.6,104.1,166.9z"/>
							<path fill="#FFFFFF" d="M92.2,143.7c0,7.6,0,24.6,0,24.9c0,1.4,2.3,2.6,5.2,2.6c2.9,0,5.2-1.2,5.2-2.6c0-0.3,0-17.3,0-24.9
								H92.2z"/>
							<path fill="#FFFFFF" d="M92.2,129.9c0,7.4,0,15,0,15.2c0,1.4,2.3,2.5,5.2,2.5c2.9,0,5.2-1.1,5.2-2.5c0-0.3,0-7.8,0-15.2H92.2
								z"/>
						</g>
					</g>
					<path fill="#FFAA00" d="M71.6,41.7c-2.7,18.1-7.2,38.1-7.2,54.9c0,23,12.2,40.4,33,40.4c20.8,0,32.8-17.3,32.8-40.4
						c0-16.8-3.5-36.7-6.2-54.9H71.6z"/>
					<g>
						<circle opacity="0.2" fill="#F6F8FB" cx="86.2" cy="124.3" r="2.4"/>
						<circle opacity="0.2" fill="#F6F8FB" cx="101" cy="97.5" r="2.4"/>
						<circle opacity="0.2" fill="#F6F8FB" cx="113.6" cy="115.5" r="2.4"/>
						<circle opacity="0.2" fill="#F6F8FB" cx="77.5" cy="61.8" r="2.4"/>
						<circle opacity="0.2" fill="#F6F8FB" cx="74" cy="102.9" r="2.4"/>
						<circle opacity="0.2" fill="#F6F8FB" cx="94.4" cy="68.9" r="2.4"/>
						<circle opacity="0.2" fill="#F6F8FB" cx="108.8" cy="57.8" r="1.6"/>
						<circle opacity="0.2" fill="#F6F8FB" cx="76.4" cy="80.6" r="1.6"/>
						<circle opacity="0.2" fill="#F6F8FB" cx="119.1" cy="77.1" r="1.6"/>
						<circle opacity="0.2" fill="#F6F8FB" cx="108.8" cy="124.3" r="1.6"/>
						<circle opacity="0.2" fill="#F6F8FB" cx="113.6" cy="93.4" r="2.1"/>
						<circle opacity="0.2" fill="#F6F8FB" cx="84.9" cy="65" r="2.1"/>
						<circle opacity="0.2" fill="#F6F8FB" cx="87.8" cy="102.9" r="1.5"/>
						<circle opacity="0.2" fill="#F6F8FB" cx="103.1" cy="80.6" r="0.8"/>
						<circle opacity="0.2" fill="#F6F8FB" cx="94.9" cy="84.1" r="0.8"/>
						<circle opacity="0.2" fill="#F6F8FB" cx="112.7" cy="34.8" r="0.8"/>
					</g>
					<path opacity="0.2" fill="#F6F8FB" d="M77.1,102.9c0-16.8,4.9-40.6,7.6-58.8h38.5c-0.1-0.8-0.3-1.7-0.4-2.5H71.9
						c-2.7,18.1-7.6,42-7.6,58.8c0,22.7,12,36.9,32.1,37.4C84.1,132.7,77.1,120.3,77.1,102.9z"/>
				</g>
				<g>
					<circle fill="#F6F8FB" cx="77.1" cy="36.2" r="12.9"/>
					<circle fill="#F6F8FB" cx="95.6" cy="36.2" r="10.7"/>
					<circle fill="#F6F8FB" cx="86.5" cy="27.3" r="9.2"/>
					<circle fill="#F6F8FB" cx="110.2" cy="33.3" r="11.1"/>
					<path fill="#F6F8FB" d="M133.4,36.2c0-5-4-9-9-9c-5,0-9,4-9,9c0,5,4,9,9,9C129.4,45.2,133.4,41.2,133.4,36.2z"/>
					<circle fill="#F6F8FB" cx="131.4" cy="44.4" r="6.6"/>
					<circle fill="#F6F8FB" cx="124.4" cy="49.1" r="5.8"/>
					<path fill="#F6F8FB" d="M132.3,58.2c0-2.9-2.3-5.2-5.2-5.2s-5.2,2.3-5.2,5.2c0,2.9,2.3,5.2,5.2,5.2S132.3,61.1,132.3,58.2z"/>
					<circle fill="#F6F8FB" cx="128.2" cy="49.7" r="5.2"/>
				</g>
			</g>
		</g>
		<g id="beer_3_" display="none">
			<circle display="inline" fill="#16A086" cx="-152" cy="334.4" r="100"/>
			<path display="inline" opacity="0.1" d="M-52.1,330.3l-63.2-63.2l-4.6,11.4l-20.9-20.9l-12.3,12.3L-127,296l-50.5,129.9l6.8,6.8
				c6,1.1,12.3,1.7,18.6,1.7c55.2,0,100-44.8,100-100C-52,333-52.1,331.7-52.1,330.3z"/>
			<g display="inline">
				<path fill="#FFFFFF" d="M-129.3,399.2c-2.5-11.6-6.5-45.8,4.4-64c11.5-19,6.3-53.3,6.1-54.7l-0.2-1.3h-67.8l-0.1,1.4
					c-0.1,1.4-2,35.6,9.4,54.6c11,18.2,6.9,52.3,4.4,64c-0.8,3.5-1.5,6.6-2.1,9.2c-1.5,6.2-2.4,10.3-2.4,14.5l0,3h52.7l0-3
					c0-4.1-0.9-8.3-2.4-14.5C-127.9,405.8-128.6,402.8-129.3,399.2z"/>
				<path fill="#FFAA00" d="M-120.8,281.7h-30.4h-33.7c0,0-2.1,34.5,9.1,53c11.2,18.5,7,52.5,4.6,64.2c-2.5,11.6-4.5,17.4-4.4,23
					c22.2,0,24.5,0,24.5,0s2.3,0,24.5,0c0.1-5.6-1.9-11.4-4.4-23c-2.5-11.6-6.6-45.6,4.6-64.2C-115.4,316.2-120.8,281.7-120.8,281.7
					z"/>
				<g>
					<circle opacity="0.2" fill="#F6F8FB" cx="-160.2" cy="347.6" r="2.4"/>
					<circle opacity="0.2" fill="#F6F8FB" cx="-145.4" cy="320.8" r="2.4"/>
					<circle opacity="0.2" fill="#F6F8FB" cx="-132.8" cy="338.8" r="2.4"/>
					<circle opacity="0.2" fill="#F6F8FB" cx="-143" cy="387.3" r="2.4"/>
					<circle opacity="0.2" fill="#F6F8FB" cx="-157.1" cy="410.1" r="2.4"/>
					<circle opacity="0.2" fill="#F6F8FB" cx="-169" cy="285.1" r="2.4"/>
					<circle opacity="0.2" fill="#F6F8FB" cx="-172.4" cy="326.2" r="2.4"/>
					<circle opacity="0.2" fill="#F6F8FB" cx="-152" cy="292.2" r="2.4"/>
					<circle opacity="0.2" fill="#F6F8FB" cx="-137.6" cy="281.1" r="1.6"/>
					<circle opacity="0.2" fill="#F6F8FB" cx="-170" cy="303.9" r="1.6"/>
					<circle opacity="0.2" fill="#F6F8FB" cx="-127.3" cy="300.5" r="1.6"/>
					<circle opacity="0.2" fill="#F6F8FB" cx="-137.6" cy="347.6" r="1.6"/>
					<circle opacity="0.2" fill="#F6F8FB" cx="-137.1" cy="369.6" r="2.1"/>
					<circle opacity="0.2" fill="#F6F8FB" cx="-166.9" cy="374.7" r="2.1"/>
					<circle opacity="0.2" fill="#F6F8FB" cx="-158.6" cy="326.2" r="1.5"/>
					<circle opacity="0.2" fill="#F6F8FB" cx="-143.3" cy="303.9" r="0.8"/>
					<circle opacity="0.2" fill="#F6F8FB" cx="-151.5" cy="307.4" r="0.8"/>
					<circle opacity="0.2" fill="#F6F8FB" cx="-143.5" cy="372.6" r="0.8"/>
				</g>
				<path opacity="0.2" fill="#F6F8FB" d="M-177,422.8c5.6,0,7.2,0,10.5,0c0.7-4.7,2.5-16.6,4.3-25.5c2.5-12.5,6.6-49.2-4.6-69.1
					c-7.4-13.2-7.5-33.8-6.8-46.3h-12.4c0,0-2.1,33.1,9.1,50.9c11.2,17.8,7,50.5,4.6,61.7C-174.8,405.7-177.1,417.4-177,422.8z"/>
				<g>
					<circle fill="#F6F8FB" cx="-177.5" cy="272" r="14.4"/>
					<circle fill="#F6F8FB" cx="-164.4" cy="266" r="9.8"/>
					<circle fill="#F6F8FB" cx="-147.6" cy="264.7" r="9.8"/>
					<path fill="#F6F8FB" d="M-150,275.8c0-6.1-5-11.1-11.1-11.1c-6.1,0-11.1,5-11.1,11.1c0,6.1,5,11.1,11.1,11.1
						C-154.9,286.9-150,281.9-150,275.8z"/>
					<ellipse fill="#F6F8FB" cx="-153.4" cy="270.8" rx="15.1" ry="13.2"/>
					<ellipse fill="#F6F8FB" cx="-158.3" cy="277.1" rx="15.1" ry="13.2"/>
					<ellipse fill="#F6F8FB" cx="-170.8" cy="288.7" rx="8.7" ry="9"/>
					<ellipse fill="#F6F8FB" cx="-170.8" cy="298.9" rx="5.7" ry="5.9"/>
					<path fill="#F6F8FB" d="M-119.9,275.8c0-8.3-7-15-15.7-15c-8.7,0-15.7,6.7-15.7,15c0,8.3,7,15,15.7,15
						C-127,290.7-119.9,284-119.9,275.8z"/>
					<path fill="#F6F8FB" d="M-112.2,274.8c0-6-4.9-10.9-10.9-10.9c-6,0-10.9,4.9-10.9,10.9c0,6,4.9,10.9,10.9,10.9
						C-117,285.7-112.2,280.8-112.2,274.8z"/>
					<ellipse fill="#F6F8FB" cx="-119.9" cy="288.1" rx="7.7" ry="8.9"/>
				</g>
			</g>
		</g>
		<g id="beer_2_" display="none">
			<circle display="inline" fill="#FE6017" cx="352" cy="-140.3" r="100"/>
			<path display="inline" opacity="0.1" d="M452-140.3c0-8.8-1.1-17.4-3.3-25.5l-48.4-48.4l-19.5,19.5l-16.6-16.6l-17.2,17.2
				l16.6,16.6l-4.4,4.4l-23-23l-21.6,21.6l11.9,11.9l-18.3,18.3l6.1,6.1l-11.7,11.7l17.5,17.5l-32.9,32.9l29.4,29.4
				c11,4.2,22.9,6.4,35.4,6.4C407.3-40.3,452-85,452-140.3z"/>
			<g display="inline">
				<g>
					<path fill="#FFFFFF" d="M416.2-100.5c-0.7-3.7-3.4-9.7-6.5-16.6l-1.3-3c-3.4-7.6-11-30.4-5.8-44.3c5.7-15.2-2.9-38.6-3.3-39.5
						l-0.6-1.6l-50.4,10.2l0.3,1.9c0.1,1,3.6,25.3,14.7,37c10.3,10.8,12.1,34.7,11.9,43.1c-0.2,10.8,0.1,17.4,0.8,21l0.7,4.7
						l40.6-8.2L416.2-100.5z"/>
					<path fill="#FFAA00" d="M397.4-203.3l-22.3,4.5l-24.7,5c0,0,3.4,24.6,14.2,35.9c10.8,11.4,12.7,35.9,12.5,44.5
						c-0.2,8.6-0.1,16.6,0.8,20.5c16.2-3.3,17.9-3.6,17.9-3.6s2.2-0.4,18.4-3.7c-0.8-3.9-4.2-11.3-7.7-19.1
						c-3.5-7.8-11.4-31.1-5.8-45.8C406.3-179.8,397.4-203.3,397.4-203.3z"/>
					<path opacity="0.2" fill="#F6F8FB" d="M377.2-92.6c4.1-0.8,5.3-1.1,7.7-1.6c-0.2-3.6,0-11.9,0-18.7c0-9.5-2.4-37-13.6-49.9
						c-7.3-8.5-10.5-23.6-11.8-32.9l-9.1,1.8c0,0,3.4,24.6,14.2,35.9c10.8,11.4,12.7,35.9,12.5,44.5
						C377-104.8,376.4-96.5,377.2-92.6z"/>
					<g>
						<circle fill="#F6F8FB" cx="354.4" cy="-202" r="10.7"/>
						<circle fill="#F6F8FB" cx="363.1" cy="-208.3" r="7.3"/>
						<circle fill="#F6F8FB" cx="375.2" cy="-211.8" r="7.3"/>
						<circle fill="#F6F8FB" cx="367" cy="-201.6" r="8.3"/>
						
							<ellipse transform="matrix(0.98 -0.1988 0.1988 0.98 48.4619 69.8042)" fill="#F6F8FB" cx="371.8" cy="-206.4" rx="11.3" ry="9.8"/>
						
							<ellipse transform="matrix(0.98 -0.1988 0.1988 0.98 47.3549 69.3914)" fill="#F6F8FB" cx="369.2" cy="-201.1" rx="11.3" ry="9.8"/>
						
							<ellipse transform="matrix(0.98 -0.1988 0.1988 0.98 48.5289 72.5554)" fill="#F6F8FB" cx="385.6" cy="-205.4" rx="11.8" ry="11.2"/>
						<path fill="#F6F8FB" d="M402.7-209.6c-0.9-4.4-5.2-7.2-9.6-6.4c-4.4,0.9-7.3,5.2-6.4,9.6c0.9,4.4,5.2,7.3,9.6,6.4
							C400.7-200.9,403.6-205.2,402.7-209.6z"/>
					</g>
					<g>
						<circle opacity="0.2" fill="#F6F8FB" cx="393" cy="-106" r="1.8"/>
						<circle opacity="0.2" fill="#F6F8FB" cx="395.8" cy="-128.7" r="1.8"/>
						<circle opacity="0.2" fill="#F6F8FB" cx="383.3" cy="-146.7" r="1.8"/>
						<circle opacity="0.2" fill="#F6F8FB" cx="390.1" cy="-158.4" r="1.2"/>
						<circle opacity="0.2" fill="#F6F8FB" cx="390.1" cy="-179.3" r="1.6"/>
						<circle opacity="0.2" fill="#F6F8FB" cx="379.9" cy="-188.1" r="1.6"/>
						<circle opacity="0.2" fill="#F6F8FB" cx="388.1" cy="-121.3" r="1.1"/>
						<circle opacity="0.2" fill="#F6F8FB" cx="392.5" cy="-141" r="0.6"/>
						<circle opacity="0.2" fill="#F6F8FB" cx="387.8" cy="-136.3" r="0.6"/>
						<circle opacity="0.2" fill="#F6F8FB" cx="386.5" cy="-175.4" r="0.6"/>
					</g>
				</g>
				<g>
					<path fill="#FFFFFF" d="M329.4-71.8c0.8-3.6,0.7-10.2,0.6-17.8l0-3.3c-0.1-8.3,1.9-32.3,12.3-43c11.3-11.7,12.6-36.6,12.6-37.6
						l0.1-1.7l-50.4-10.6l-0.5,1.8c-0.3,1-6.8,24.7-1.2,39.8c5.1,13.9-2.7,36.7-6.1,44.3c-4.5,9.8-6.9,16-7.6,19.6l-1.2,4.6
						l40.6,8.6L329.4-71.8z"/>
					<path fill="#FFAA00" d="M352.8-173.6l-22.2-4.7l-24.6-5.2c0,0-6.6,23.9-1.2,38.6c5.4,14.7-2.6,38-6.2,45.8
						c-3.5,7.8-6.6,15.2-7.4,19.1c16.2,3.4,17.9,3.8,17.9,3.8s2.1,0.5,18.4,3.9c0.9-3.9,0.6-12.1,0.5-20.6
						c-0.1-8.6,1.9-33.1,12.8-44.4C351.7-148.5,352.8-173.6,352.8-173.6z"/>
					<path opacity="0.2" fill="#F6F8FB" d="M290.5-79.9c4.1,0.9,5.3,1.1,7.7,1.6c1.2-3.4,4.7-10.9,7.4-17.1
						c3.7-8.8,12.4-34.9,7.3-51.2c-3.4-10.7-0.3-25.8,2.2-34.9l-9.1-1.9c0,0-6.6,23.9-1.2,38.6c5.4,14.7-2.6,38-6.2,45.8
						C295.1-91.2,291.3-83.9,290.5-79.9z"/>
					<g>
						<circle fill="#F6F8FB" cx="312.9" cy="-189.4" r="10.7"/>
						<circle fill="#F6F8FB" cx="323.4" cy="-191.8" r="7.3"/>
						<circle fill="#F6F8FB" cx="335.9" cy="-190.2" r="7.3"/>
						<circle fill="#F6F8FB" cx="324.3" cy="-184.1" r="8.3"/>
						
							<ellipse transform="matrix(0.9786 0.2059 -0.2059 0.9786 -31.339 -72.0858)" fill="#F6F8FB" cx="330.6" cy="-186.6" rx="11.3" ry="9.8"/>
						
							<ellipse transform="matrix(0.9786 0.2059 -0.2059 0.9786 -30.6436 -71.0686)" fill="#F6F8FB" cx="326.1" cy="-182.8" rx="11.3" ry="9.8"/>
						<path fill="#F6F8FB" d="M354.4-177.8c1.3-6-2.8-12-9.2-13.4c-6.4-1.3-12.5,2.5-13.8,8.5c-1.3,6,2.8,12,9.2,13.4
							C346.9-167.9,353.1-171.8,354.4-177.8z"/>
						<path fill="#F6F8FB" d="M360.2-177.3c0.9-4.4-1.9-8.7-6.3-9.6c-4.4-0.9-8.7,1.9-9.6,6.3c-0.9,4.4,1.9,8.7,6.3,9.6
							C355-170.1,359.3-172.9,360.2-177.3z"/>
					</g>
					<g>
						<circle opacity="0.2" fill="#F6F8FB" cx="310.2" cy="-86" r="1.8"/>
						<circle opacity="0.2" fill="#F6F8FB" cx="321.8" cy="-105.7" r="1.8"/>
						<circle opacity="0.2" fill="#F6F8FB" cx="317.4" cy="-127.2" r="1.8"/>
						<circle opacity="0.2" fill="#F6F8FB" cx="328.4" cy="-135.2" r="1.2"/>
						<circle opacity="0.2" fill="#F6F8FB" cx="336.6" cy="-154.4" r="1.6"/>
						<circle opacity="0.2" fill="#F6F8FB" cx="330.8" cy="-166.5" r="1.6"/>
						<path opacity="0.2" fill="#F6F8FB" d="M313-101.9c0-0.6-0.5-1.1-1.1-1.2c-0.6,0-1.1,0.5-1.2,1.1c0,0.6,0.5,1.1,1.1,1.2
							C312.4-100.8,312.9-101.3,313-101.9z"/>
						<circle opacity="0.2" fill="#F6F8FB" cx="323.7" cy="-118.3" r="0.6"/>
						<circle opacity="0.2" fill="#F6F8FB" cx="317.5" cy="-115.9" r="0.6"/>
						<circle opacity="0.2" fill="#F6F8FB" cx="331.8" cy="-152.3" r="0.6"/>
					</g>
				</g>
			</g>
		</g>
		<g id="beer_1_" display="none">
			<circle display="inline" fill="#FDA601" cx="100" cy="334.4" r="100"/>
			<path display="inline" opacity="0.1" d="M199.9,338.8L132,270.8l-0.6,1.1l-7.2-7.2L105,284l12.9,12.9l-59,109.1l27.6,27.6
				c4.4,0.6,8.9,0.9,13.5,0.9C153.8,434.4,197.6,392,199.9,338.8z"/>
			<g display="inline">
				<g>
					<g>
						<path fill="#FFFFFF" d="M130,406c0,0-5.7,3.6-34.2,3.6c-28.5,0-36.9-3.6-36.9-3.6V275.6H130V406z"/>
						<path fill="#FFAA00" d="M128,402.3c0,0-5.4,3.5-32.2,3.5c-26.8,0-34.8-3.5-34.8-3.5l0.3-119.8h67L128,402.3z"/>
						<path opacity="0.2" fill="#F6F8FB" d="M79.9,281.3H60.6l-0.3,122.4c0,0,4.9,2.1,19.6,3.1V281.3z"/>
						<path opacity="0.2" fill="#F6F8FB" d="M128.6,403.8l0.3-122.4h-19.3L109.3,407C125,406.1,128.6,403.8,128.6,403.8z"/>
					</g>
					<path fill="#FFFFFF" d="M137.4,309.2H130v11.2h7.4c8.2,0,11.5,5.5,11.5,12.4V351c0,6.8-3.3,12.4-11.5,12.4H130v11.2h7.4
						c14.4,0,22.7-10.6,22.7-23.6v-18.2C160.1,319.8,151.8,309.2,137.4,309.2z"/>
				</g>
				<g>
					<circle opacity="0.2" fill="#F6F8FB" cx="82.3" cy="384.8" r="2.4"/>
					<circle opacity="0.2" fill="#F6F8FB" cx="97.2" cy="358" r="2.4"/>
					<circle opacity="0.2" fill="#F6F8FB" cx="92.9" cy="394.8" r="2.4"/>
					<circle opacity="0.2" fill="#F6F8FB" cx="109.7" cy="376" r="2.4"/>
					<circle opacity="0.2" fill="#F6F8FB" cx="73.6" cy="322.2" r="2.4"/>
					<circle opacity="0.2" fill="#F6F8FB" cx="70.1" cy="363.4" r="2.4"/>
					<circle opacity="0.2" fill="#F6F8FB" cx="90.5" cy="329.4" r="2.4"/>
					<circle opacity="0.2" fill="#F6F8FB" cx="104.9" cy="318.3" r="1.6"/>
					<circle opacity="0.2" fill="#F6F8FB" cx="72.5" cy="341.1" r="1.6"/>
					<circle opacity="0.2" fill="#F6F8FB" cx="115.3" cy="337.6" r="1.6"/>
					<circle opacity="0.2" fill="#F6F8FB" cx="104.9" cy="384.8" r="1.6"/>
					<circle opacity="0.2" fill="#F6F8FB" cx="106.5" cy="401.2" r="1.6"/>
					<circle opacity="0.2" fill="#F6F8FB" cx="83.9" cy="404.5" r="1.6"/>
					<circle opacity="0.2" fill="#F6F8FB" cx="115.3" cy="292.3" r="2.1"/>
					<circle opacity="0.2" fill="#F6F8FB" cx="85.4" cy="297.4" r="2.1"/>
					<circle opacity="0.2" fill="#F6F8FB" cx="83.9" cy="363.4" r="1.5"/>
					<circle opacity="0.2" fill="#F6F8FB" cx="99.2" cy="341.1" r="0.8"/>
					<circle opacity="0.2" fill="#F6F8FB" cx="91" cy="344.6" r="0.8"/>
					<circle opacity="0.2" fill="#F6F8FB" cx="108.9" cy="295.3" r="0.8"/>
				</g>
				<g>
					<circle fill="#F6F8FB" cx="70.2" cy="276.5" r="14.4"/>
					<circle fill="#F6F8FB" cx="83.3" cy="270.5" r="9.8"/>
					<circle fill="#F6F8FB" cx="100.2" cy="269.2" r="9.8"/>
					<path fill="#F6F8FB" d="M97.8,280.3c0-6.1-5-11.1-11.1-11.1c-6.1,0-11.1,5-11.1,11.1c0,6.1,5,11.1,11.1,11.1
						C92.8,291.4,97.8,286.4,97.8,280.3z"/>
					<ellipse fill="#F6F8FB" cx="94.3" cy="275.3" rx="15.1" ry="13.2"/>
					<path fill="#F6F8FB" d="M127.9,274.2c0-8.3-7-15-15.7-15c-8.7,0-15.7,6.7-15.7,15c0,8.3,7,15,15.7,15
						C120.8,289.2,127.9,282.5,127.9,274.2z"/>
					<path fill="#F6F8FB" d="M135.6,279.3c0-6-4.9-10.9-10.9-10.9c-6,0-10.9,4.9-10.9,10.9c0,6,4.9,10.9,10.9,10.9
						C130.7,290.2,135.6,285.3,135.6,279.3z"/>
				</g>
			</g>
		</g>
		<g id="beer" display="none">
			<circle display="inline" fill="#2A80B9" cx="100" cy="-140.3" r="100"/>
			<path display="inline" opacity="0.1" d="M200-139.1l-64.7-64.7l-8.3,8.3l-13.3-13.3l-12.7,12.7l-18.4-18.4l-21.6,21.6l31.7,31.7
				l-18,18L96-121.7l-41,41l40.3,40.3c1.6,0.1,3.1,0.1,4.7,0.1C154.9-40.3,199.4-84.4,200-139.1z"/>
			<g display="inline">
				<path fill="#FFFFFF" d="M52.6-188.5v102c0,4.5,3.6,8.1,8.1,8.1H128c4.5,0,8.1-3.6,8.1-8.1v-102H52.6z"/>
				<path fill="#FFAA00" d="M55.2-194.5v103.9c0,4.2,3.4,7.6,7.6,7.6h63c4.2,0,7.6-3.4,7.6-7.6v-103.9H55.2z"/>
				<g>
					<circle opacity="0.2" fill="#F6F8FB" cx="81.7" cy="-99.4" r="2.4"/>
					<circle opacity="0.2" fill="#F6F8FB" cx="96.6" cy="-126.1" r="2.4"/>
					<circle opacity="0.2" fill="#F6F8FB" cx="109.1" cy="-108.2" r="2.4"/>
					<circle opacity="0.2" fill="#F6F8FB" cx="73" cy="-161.9" r="2.4"/>
					<circle opacity="0.2" fill="#F6F8FB" cx="69.5" cy="-120.8" r="2.4"/>
					<circle opacity="0.2" fill="#F6F8FB" cx="89.9" cy="-154.8" r="2.4"/>
					<circle opacity="0.2" fill="#F6F8FB" cx="104.3" cy="-165.9" r="1.6"/>
					<circle opacity="0.2" fill="#F6F8FB" cx="71.9" cy="-143.1" r="1.6"/>
					<circle opacity="0.2" fill="#F6F8FB" cx="114.7" cy="-146.5" r="1.6"/>
					<circle opacity="0.2" fill="#F6F8FB" cx="104.3" cy="-99.4" r="1.6"/>
					<circle opacity="0.2" fill="#F6F8FB" cx="114.7" cy="-191.8" r="2.1"/>
					<circle opacity="0.2" fill="#F6F8FB" cx="84.8" cy="-186.8" r="2.1"/>
					<circle opacity="0.2" fill="#F6F8FB" cx="83.3" cy="-120.8" r="1.5"/>
					<circle opacity="0.2" fill="#F6F8FB" cx="98.6" cy="-143.1" r="0.8"/>
					<circle opacity="0.2" fill="#F6F8FB" cx="90.4" cy="-139.6" r="0.8"/>
					<circle opacity="0.2" fill="#F6F8FB" cx="108.3" cy="-188.9" r="0.8"/>
				</g>
				<path opacity="0.2" fill="#F6F8FB" d="M82-186H61.2V-94c0,3.5,2.9,6.4,6.4,6.4H82V-186z"/>
				<path opacity="0.2" fill="#F6F8FB" d="M127.1-188.1h-23.7v100.5H121c2.8,0,5.1-1.7,6-4.2V-188.1z"/>
				<g>
					<path fill="#FFFFFF" d="M135.8-96.5l-0.6-14c15.5-7.1,19-11.4,19-16.8v-31.3c0-0.8,0-1.6-2.3-1.6h-18.7v-12.9h18.7
						c9,0,15.3,6,15.3,14.5v31.3C167.1-116,157.4-106.5,135.8-96.5z"/>
				</g>
				<g>
					<circle fill="#F6F8FB" cx="62.9" cy="-195" r="16.1"/>
					<circle fill="#F6F8FB" cx="86.1" cy="-195" r="13.4"/>
					<circle fill="#F6F8FB" cx="74.7" cy="-206.1" r="11.5"/>
					<circle fill="#F6F8FB" cx="104.3" cy="-198.6" r="13.9"/>
					<circle fill="#F6F8FB" cx="122.1" cy="-195" r="11.2"/>
					<circle fill="#F6F8FB" cx="129.7" cy="-197.6" r="8.2"/>
					<circle fill="#F6F8FB" cx="137.3" cy="-187.2" r="8.9"/>
					<circle fill="#F6F8FB" cx="122.1" cy="-178.8" r="7.2"/>
					<circle fill="#F6F8FB" cx="125.4" cy="-167.5" r="6.5"/>
				</g>
			</g>
		</g>
	</g>
	<g>
		<g>
			<g>
				<g>
					<path fill-rule="evenodd" clip-rule="evenodd" fill="#FFCE54" d="M-7.1,491.8c0.4,0,0.7-0.1,1-0.3c0.3-0.2,0.6-0.5,0.8-0.9
						c0.2-0.4,0.3-0.9,0.3-1.5c0-0.6-0.1-1.1-0.3-1.5c-0.2-0.4-0.4-0.7-0.8-1c-0.3-0.2-0.7-0.3-1-0.3v-1.6c0.4,0.1,0.7,0.1,0.9,0.3
						c0.4,0.2,0.8,0.5,1.3,1v-3.2c0-0.4,0.1-0.8,0.3-1c0.2-0.2,0.4-0.3,0.8-0.3c0.3,0,0.6,0.1,0.8,0.3c0.2,0.2,0.3,0.5,0.3,0.9v9.6
						c0,0.4-0.1,0.7-0.3,0.9c-0.2,0.2-0.4,0.3-0.7,0.3c-0.3,0-0.5-0.1-0.7-0.3c-0.2-0.2-0.3-0.5-0.3-0.9V492
						c-0.3,0.3-0.6,0.6-0.9,0.8c-0.3,0.2-0.6,0.4-0.9,0.5c-0.1,0-0.3,0.1-0.4,0.1V491.8z M-9.2,489.1c0,0.6,0.1,1.1,0.3,1.5
						c0.2,0.4,0.4,0.7,0.8,0.9c0.3,0.2,0.7,0.3,1,0.3h0v1.6c-0.2,0-0.4,0.1-0.7,0.1c-0.5,0-1-0.1-1.4-0.3c-0.4-0.2-0.8-0.5-1.2-0.9
						c-0.3-0.4-0.6-0.9-0.7-1.4c-0.2-0.6-0.3-1.2-0.3-1.8c0-1.4,0.3-2.4,1-3.2c0.7-0.8,1.5-1.1,2.6-1.1c0.2,0,0.4,0,0.6,0v1.6h0
						c-0.4,0-0.8,0.1-1.1,0.3c-0.3,0.2-0.6,0.6-0.7,1C-9.1,488-9.2,488.5-9.2,489.1"/>
					<path fill-rule="evenodd" clip-rule="evenodd" fill="#FFCE54" d="M3.1,488.4h2c-0.1-0.7-0.3-1.3-0.6-1.7
						c-0.3-0.4-0.8-0.6-1.4-0.6v-1.5h0.1c0.9,0,1.6,0.2,2.2,0.5c0.6,0.4,1.1,0.8,1.4,1.4c0.3,0.6,0.4,1.1,0.4,1.7
						c0,0.5-0.2,0.9-0.5,1.1c-0.3,0.2-0.8,0.2-1.3,0.2H3.1V488.4z M3.1,493.5V492c0.1,0,0.1,0,0.2,0c0.3,0,0.5,0,0.7-0.1
						c0.2-0.1,0.4-0.2,0.6-0.3c0.2-0.1,0.4-0.3,0.6-0.4c0.2-0.1,0.4-0.3,0.7-0.6c0.1-0.1,0.3-0.1,0.5-0.1c0.2,0,0.4,0.1,0.5,0.2
						c0.1,0.1,0.2,0.3,0.2,0.5c0,0.2-0.1,0.4-0.2,0.7c-0.2,0.3-0.4,0.5-0.7,0.8c-0.3,0.2-0.7,0.4-1.2,0.6c-0.5,0.2-1,0.2-1.6,0.2
						C3.3,493.5,3.2,493.5,3.1,493.5 M1.2,488.4h2v1.2h-2c0,0.5,0.1,0.9,0.3,1.3c0.2,0.4,0.5,0.7,0.8,0.9c0.3,0.2,0.6,0.3,0.9,0.3
						v1.4c-1.3,0-2.3-0.4-3-1.2c-0.8-0.8-1.2-1.9-1.2-3.2c0-0.6,0.1-1.2,0.3-1.8c0.2-0.5,0.5-1,0.8-1.4c0.4-0.4,0.8-0.7,1.4-0.9
						c0.5-0.2,1.1-0.3,1.7-0.3v1.5h0c-0.5,0-1,0.2-1.3,0.6C1.4,487.1,1.2,487.6,1.2,488.4"/>
					<path fill-rule="evenodd" clip-rule="evenodd" fill="#FFCE54" d="M16.1,490.6c0,0.6-0.1,1.1-0.4,1.5c-0.3,0.4-0.7,0.8-1.3,1
						c-0.6,0.2-1.3,0.3-2.1,0.3c-0.8,0-1.5-0.1-2-0.4c-0.6-0.2-1-0.5-1.2-0.9c-0.3-0.4-0.4-0.7-0.4-1.1c0-0.2,0.1-0.4,0.3-0.6
						c0.2-0.2,0.4-0.3,0.6-0.3c0.2,0,0.4,0.1,0.5,0.2c0.1,0.1,0.2,0.3,0.4,0.5c0.2,0.4,0.5,0.7,0.8,0.9c0.3,0.2,0.7,0.3,1.3,0.3
						c0.4,0,0.8-0.1,1.1-0.3c0.3-0.2,0.4-0.4,0.4-0.7c0-0.4-0.1-0.7-0.4-0.8c-0.3-0.2-0.8-0.3-1.4-0.5c-0.8-0.2-1.4-0.4-1.8-0.6
						c-0.5-0.2-0.8-0.5-1.1-0.8c-0.3-0.3-0.4-0.7-0.4-1.2c0-0.4,0.1-0.8,0.4-1.2c0.3-0.4,0.6-0.7,1.2-0.9c0.5-0.2,1.1-0.3,1.8-0.3
						c0.6,0,1.1,0.1,1.5,0.2c0.4,0.1,0.8,0.3,1.1,0.5c0.3,0.2,0.5,0.4,0.7,0.7c0.2,0.2,0.2,0.5,0.2,0.7c0,0.3-0.1,0.5-0.3,0.6
						c-0.2,0.2-0.4,0.2-0.7,0.2c-0.2,0-0.4-0.1-0.6-0.2c-0.2-0.1-0.3-0.3-0.5-0.6c-0.2-0.2-0.4-0.4-0.6-0.5
						c-0.2-0.1-0.5-0.2-0.9-0.2c-0.4,0-0.7,0.1-1,0.3c-0.3,0.2-0.4,0.4-0.4,0.6c0,0.2,0.1,0.4,0.3,0.6c0.2,0.1,0.4,0.3,0.8,0.4
						c0.3,0.1,0.8,0.2,1.3,0.3c0.7,0.2,1.2,0.4,1.7,0.6c0.4,0.2,0.8,0.5,1,0.8C16,489.9,16.1,490.3,16.1,490.6"/>
					<path fill-rule="evenodd" clip-rule="evenodd" fill="#FFCE54" d="M20.1,485.9v6.3c0,0.4-0.1,0.8-0.3,1
						c-0.2,0.2-0.5,0.3-0.8,0.3c-0.3,0-0.6-0.1-0.8-0.3c-0.2-0.2-0.3-0.6-0.3-1v-6.2c0-0.4,0.1-0.8,0.3-1c0.2-0.2,0.5-0.3,0.8-0.3
						c0.3,0,0.6,0.1,0.8,0.3C20,485.2,20.1,485.5,20.1,485.9 M19,483.6c-0.3,0-0.6-0.1-0.8-0.3c-0.2-0.2-0.3-0.5-0.3-0.8
						c0-0.3,0.1-0.6,0.3-0.8c0.2-0.2,0.5-0.3,0.8-0.3c0.3,0,0.5,0.1,0.8,0.3c0.2,0.2,0.3,0.4,0.3,0.8c0,0.3-0.1,0.6-0.3,0.8
						C19.6,483.5,19.3,483.6,19,483.6"/>
					<path fill-rule="evenodd" clip-rule="evenodd" fill="#FFCE54" d="M26.1,491.7c0.4,0,0.7-0.1,1-0.3c0.3-0.2,0.6-0.5,0.8-0.9
						c0.2-0.4,0.3-0.9,0.3-1.4c0-0.9-0.2-1.6-0.6-2.1c-0.4-0.5-0.9-0.7-1.5-0.7v-1.6c0.3,0.1,0.6,0.2,0.9,0.3
						c0.5,0.2,0.9,0.6,1.3,1.1v-0.3c0-0.4,0.1-0.7,0.3-0.9c0.2-0.2,0.4-0.3,0.7-0.3c0.4,0,0.7,0.1,0.8,0.4c0.1,0.3,0.2,0.7,0.2,1.2
						v6.3c0,0.7-0.1,1.3-0.2,1.9c-0.2,0.5-0.4,1-0.7,1.3c-0.3,0.3-0.8,0.6-1.3,0.8c-0.5,0.2-1.2,0.2-1.9,0.2v-1.5
						c0.5,0,0.9-0.1,1.1-0.2c0.3-0.2,0.5-0.4,0.7-0.7c0.1-0.3,0.2-0.6,0.2-0.9c0-0.3,0-0.8,0.1-1.6c-0.3,0.5-0.7,0.8-1.2,1.1
						c-0.3,0.1-0.6,0.3-0.9,0.3V491.7z M24,489c0,0.9,0.2,1.6,0.6,2c0.4,0.4,0.9,0.7,1.5,0.7h0v1.6c-0.2,0-0.4,0.1-0.7,0.1
						c-0.7,0-1.4-0.2-1.9-0.6c-0.5-0.4-1-0.9-1.3-1.6c-0.3-0.7-0.4-1.4-0.4-2.3c0-0.6,0.1-1.2,0.3-1.8c0.2-0.5,0.4-1,0.8-1.3
						c0.3-0.4,0.7-0.6,1.1-0.8c0.4-0.2,0.9-0.3,1.4-0.3c0.2,0,0.5,0,0.7,0.1v1.6h0c-0.6,0-1.1,0.2-1.5,0.7
						C24.2,487.4,24,488.1,24,489 M26.1,495.2v1.5l-0.1,0c-0.8,0-1.4-0.1-2-0.3c-0.6-0.2-1-0.5-1.4-0.8c-0.3-0.3-0.5-0.7-0.5-1
						c0-0.3,0.1-0.5,0.3-0.6c0.2-0.2,0.4-0.3,0.7-0.3c0.3,0,0.6,0.1,0.8,0.4c0.1,0.1,0.2,0.3,0.4,0.4c0.1,0.1,0.3,0.3,0.4,0.4
						c0.1,0.1,0.3,0.2,0.5,0.2c0.2,0.1,0.5,0.1,0.7,0.1C26,495.2,26.1,495.2,26.1,495.2"/>
					<path fill-rule="evenodd" clip-rule="evenodd" fill="#FFCE54" d="M34.5,485.8v0.3c0.4-0.5,0.8-0.9,1.3-1.1
						c0.5-0.2,1-0.4,1.6-0.4c0.6,0,1.1,0.1,1.5,0.4c0.5,0.3,0.8,0.6,1,1.1c0.1,0.3,0.2,0.6,0.3,0.9c0,0.3,0.1,0.7,0.1,1.2v4.1
						c0,0.4-0.1,0.8-0.3,1c-0.2,0.2-0.5,0.3-0.8,0.3c-0.3,0-0.6-0.1-0.8-0.3c-0.2-0.2-0.3-0.6-0.3-1v-3.6c0-0.7-0.1-1.3-0.3-1.6
						c-0.2-0.4-0.6-0.6-1.2-0.6c-0.4,0-0.7,0.1-1.1,0.3c-0.3,0.2-0.6,0.5-0.7,1c-0.1,0.3-0.2,0.9-0.2,1.8v2.7c0,0.4-0.1,0.8-0.3,1
						c-0.2,0.2-0.5,0.3-0.8,0.3c-0.3,0-0.6-0.1-0.8-0.3c-0.2-0.2-0.3-0.6-0.3-1v-6.3c0-0.4,0.1-0.7,0.3-0.9c0.2-0.2,0.4-0.3,0.7-0.3
						c0.2,0,0.4,0,0.5,0.1c0.2,0.1,0.3,0.2,0.4,0.4C34.5,485.4,34.5,485.6,34.5,485.8"/>
					<path fill-rule="evenodd" clip-rule="evenodd" fill="#FFCE54" d="M46.2,488.4h2c-0.1-0.7-0.3-1.3-0.6-1.7
						c-0.3-0.4-0.8-0.6-1.4-0.6v-1.5h0.1c0.9,0,1.6,0.2,2.2,0.5c0.6,0.4,1.1,0.8,1.4,1.4c0.3,0.6,0.5,1.1,0.5,1.7
						c0,0.5-0.2,0.9-0.5,1.1c-0.3,0.2-0.8,0.2-1.3,0.2h-2.3V488.4z M46.2,493.5V492c0.1,0,0.1,0,0.2,0c0.3,0,0.5,0,0.7-0.1
						c0.2-0.1,0.4-0.2,0.6-0.3c0.2-0.1,0.4-0.3,0.6-0.4c0.2-0.1,0.4-0.3,0.7-0.6c0.1-0.1,0.3-0.1,0.5-0.1c0.2,0,0.4,0.1,0.5,0.2
						c0.1,0.1,0.2,0.3,0.2,0.5c0,0.2-0.1,0.4-0.2,0.7c-0.2,0.3-0.4,0.5-0.7,0.8c-0.3,0.2-0.7,0.4-1.2,0.6c-0.5,0.2-1,0.2-1.6,0.2
						C46.4,493.5,46.3,493.5,46.2,493.5 M44.2,488.4h2v1.2h-2c0,0.5,0.1,0.9,0.3,1.3c0.2,0.4,0.5,0.7,0.8,0.9
						c0.3,0.2,0.6,0.3,0.9,0.3v1.4c-1.3,0-2.3-0.4-3-1.2c-0.8-0.8-1.2-1.9-1.2-3.2c0-0.6,0.1-1.2,0.3-1.8c0.2-0.5,0.5-1,0.8-1.4
						c0.4-0.4,0.8-0.7,1.4-0.9c0.5-0.2,1.1-0.3,1.7-0.3v1.5h0c-0.5,0-1,0.2-1.3,0.6C44.5,487.1,44.3,487.6,44.2,488.4"/>
					<path fill-rule="evenodd" clip-rule="evenodd" fill="#FFCE54" d="M55.9,491.8c0.4,0,0.7-0.1,1-0.3c0.3-0.2,0.6-0.5,0.8-0.9
						c0.2-0.4,0.3-0.9,0.3-1.5c0-0.6-0.1-1.1-0.3-1.5c-0.2-0.4-0.4-0.7-0.8-1c-0.3-0.2-0.7-0.3-1-0.3v-1.6c0.4,0.1,0.7,0.1,0.9,0.3
						c0.4,0.2,0.9,0.5,1.3,1v-3.2c0-0.4,0.1-0.8,0.3-1c0.2-0.2,0.4-0.3,0.8-0.3c0.3,0,0.6,0.1,0.8,0.3c0.2,0.2,0.3,0.5,0.3,0.9v9.6
						c0,0.4-0.1,0.7-0.3,0.9c-0.2,0.2-0.4,0.3-0.7,0.3c-0.3,0-0.5-0.1-0.7-0.3c-0.2-0.2-0.3-0.5-0.3-0.9V492
						c-0.3,0.3-0.6,0.6-0.9,0.8c-0.3,0.2-0.6,0.4-0.9,0.5c-0.1,0-0.3,0.1-0.4,0.1V491.8z M53.8,489.1c0,0.6,0.1,1.1,0.3,1.5
						c0.2,0.4,0.4,0.7,0.8,0.9c0.3,0.2,0.7,0.3,1,0.3h0v1.6c-0.2,0-0.4,0.1-0.7,0.1c-0.5,0-1-0.1-1.4-0.3c-0.4-0.2-0.8-0.5-1.1-0.9
						c-0.3-0.4-0.6-0.9-0.7-1.4c-0.2-0.6-0.3-1.2-0.3-1.8c0-1.4,0.3-2.4,1-3.2c0.7-0.8,1.5-1.1,2.6-1.1c0.2,0,0.4,0,0.6,0v1.6h0
						c-0.4,0-0.8,0.1-1.1,0.3c-0.3,0.2-0.6,0.6-0.7,1C53.9,488,53.8,488.5,53.8,489.1"/>
					<path fill-rule="evenodd" clip-rule="evenodd" fill="#FFCE54" d="M70.6,491.8L70.6,491.8c0.6,0,1.1-0.2,1.5-0.7
						c0.4-0.5,0.6-1.2,0.6-2c0-0.6-0.1-1.1-0.2-1.5c-0.2-0.4-0.4-0.7-0.7-1c-0.3-0.2-0.7-0.3-1.1-0.3c0,0,0,0-0.1,0v-1.6
						c0.2,0,0.4,0,0.6,0c0.7,0,1.4,0.2,1.9,0.5c0.5,0.3,1,0.8,1.3,1.5c0.3,0.6,0.5,1.4,0.5,2.3c0,0.7-0.1,1.3-0.2,1.8
						c-0.2,0.6-0.4,1-0.7,1.4c-0.3,0.4-0.7,0.7-1.2,0.9c-0.5,0.2-1,0.3-1.5,0.3c-0.2,0-0.4,0-0.6,0V491.8z M68.5,489.1
						c0,0.9,0.2,1.5,0.6,2c0.4,0.4,0.9,0.7,1.5,0.7v1.6c-0.1,0-0.2,0-0.3-0.1c-0.3-0.1-0.5-0.2-0.8-0.3c-0.2-0.1-0.4-0.3-0.5-0.4
						c-0.1-0.1-0.3-0.3-0.6-0.6v0.2c0,0.4-0.1,0.7-0.3,0.9c-0.2,0.2-0.4,0.3-0.7,0.3c-0.3,0-0.6-0.1-0.7-0.3
						c-0.2-0.2-0.3-0.5-0.3-0.9v-9.5c0-0.4,0.1-0.8,0.3-1c0.2-0.2,0.4-0.3,0.7-0.3c0.3,0,0.6,0.1,0.8,0.3c0.2,0.2,0.3,0.5,0.3,0.9
						v3.3c0.4-0.4,0.8-0.8,1.3-1c0.3-0.1,0.6-0.2,0.9-0.3v1.6c-0.4,0-0.7,0.1-1,0.3c-0.3,0.2-0.6,0.6-0.8,1
						C68.6,488,68.5,488.5,68.5,489.1"/>
					<path fill-rule="evenodd" clip-rule="evenodd" fill="#FFCE54" d="M78.4,493.8l0.2-0.5l-2.7-6.8c-0.2-0.4-0.2-0.7-0.2-0.8
						c0-0.2,0-0.4,0.1-0.5c0.1-0.2,0.2-0.3,0.4-0.4c0.2-0.1,0.3-0.1,0.5-0.1c0.3,0,0.6,0.1,0.7,0.3c0.2,0.2,0.3,0.5,0.4,0.9l1.8,5.4
						l1.7-5c0.1-0.4,0.3-0.7,0.4-0.9c0.1-0.2,0.2-0.4,0.4-0.5c0.1-0.1,0.3-0.1,0.5-0.1c0.2,0,0.3,0,0.5,0.1c0.2,0.1,0.3,0.2,0.4,0.4
						c0.1,0.1,0.1,0.3,0.1,0.5c0,0.1-0.1,0.2-0.1,0.4c0,0.2-0.1,0.4-0.2,0.6l-2.8,7.4c-0.2,0.7-0.5,1.2-0.7,1.5
						c-0.2,0.4-0.5,0.7-0.9,0.9c-0.4,0.2-0.9,0.3-1.6,0.3c-0.6,0-1.1-0.1-1.4-0.2c-0.3-0.1-0.5-0.4-0.5-0.8c0-0.3,0.1-0.4,0.2-0.6
						c0.2-0.1,0.4-0.2,0.7-0.2c0.1,0,0.2,0,0.3,0c0.1,0,0.3,0,0.4,0c0.3,0,0.4,0,0.6-0.1c0.1-0.1,0.3-0.2,0.4-0.4
						C78.2,494.4,78.3,494.1,78.4,493.8"/>
					<path fill-rule="evenodd" clip-rule="evenodd" fill="#FFCE54" d="M118.8,484.8h0.5v-0.7c0-0.7,0.1-1.2,0.3-1.6
						c0.2-0.4,0.5-0.7,0.9-0.9c0.4-0.2,1-0.3,1.7-0.3c1.3,0,1.9,0.3,1.9,0.9c0,0.2-0.1,0.4-0.2,0.5c-0.1,0.1-0.3,0.2-0.5,0.2
						c-0.1,0-0.2,0-0.4-0.1c-0.2,0-0.4,0-0.5,0c-0.4,0-0.6,0.1-0.8,0.3c-0.1,0.2-0.2,0.6-0.2,1v0.5h0.5c0.8,0,1.2,0.3,1.2,0.7
						c0,0.4-0.1,0.6-0.3,0.7c-0.2,0.1-0.5,0.1-0.9,0.1h-0.5v5.8c0,0.4-0.1,0.8-0.3,1c-0.2,0.2-0.5,0.3-0.8,0.3
						c-0.3,0-0.6-0.1-0.8-0.3c-0.2-0.2-0.3-0.6-0.3-1v-5.8h-0.6c-0.3,0-0.6-0.1-0.7-0.2c-0.2-0.1-0.3-0.3-0.3-0.6
						C117.7,485.1,118,484.8,118.8,484.8"/>
					<path fill-rule="evenodd" clip-rule="evenodd" fill="#FFCE54" d="M126.5,490.4v1.8c0,0.4-0.1,0.8-0.3,1
						c-0.2,0.2-0.5,0.3-0.8,0.3c-0.3,0-0.6-0.1-0.8-0.3c-0.2-0.2-0.3-0.6-0.3-1v-6.1c0-1,0.4-1.5,1.1-1.5c0.4,0,0.6,0.1,0.8,0.3
						c0.2,0.2,0.2,0.6,0.3,1c0.3-0.4,0.5-0.8,0.8-1c0.3-0.2,0.6-0.3,1.1-0.3c0.5,0,0.9,0.1,1.3,0.3c0.4,0.2,0.6,0.5,0.6,0.9
						c0,0.3-0.1,0.5-0.3,0.7c-0.2,0.2-0.4,0.3-0.6,0.3c-0.1,0-0.3,0-0.6-0.1c-0.3-0.1-0.6-0.2-0.8-0.2c-0.3,0-0.6,0.1-0.8,0.3
						c-0.2,0.2-0.4,0.4-0.5,0.7c-0.1,0.3-0.2,0.7-0.2,1.2C126.6,489.1,126.5,489.7,126.5,490.4"/>
					<path fill-rule="evenodd" clip-rule="evenodd" fill="#FFCE54" d="M134.9,488.4h2c-0.1-0.7-0.3-1.3-0.6-1.7
						c-0.3-0.4-0.8-0.6-1.4-0.6v-1.5h0.1c0.8,0,1.6,0.2,2.2,0.5c0.6,0.4,1.1,0.8,1.4,1.4c0.3,0.6,0.5,1.1,0.5,1.7
						c0,0.5-0.2,0.9-0.5,1.1c-0.3,0.2-0.8,0.2-1.3,0.2h-2.3V488.4z M134.9,493.5V492c0.1,0,0.1,0,0.2,0c0.3,0,0.5,0,0.7-0.1
						c0.2-0.1,0.4-0.2,0.6-0.3c0.2-0.1,0.4-0.3,0.6-0.4c0.2-0.1,0.4-0.3,0.7-0.6c0.1-0.1,0.3-0.1,0.5-0.1c0.2,0,0.4,0.1,0.5,0.2
						c0.1,0.1,0.2,0.3,0.2,0.5c0,0.2-0.1,0.4-0.2,0.7c-0.2,0.3-0.4,0.5-0.7,0.8c-0.3,0.2-0.7,0.4-1.2,0.6c-0.5,0.2-1,0.2-1.6,0.2
						C135.1,493.5,135,493.5,134.9,493.5 M132.9,488.4h2v1.2h-2c0,0.5,0.1,0.9,0.3,1.3c0.2,0.4,0.5,0.7,0.8,0.9
						c0.3,0.2,0.6,0.3,0.9,0.3v1.4c-1.3,0-2.3-0.4-3-1.2c-0.8-0.8-1.2-1.9-1.2-3.2c0-0.6,0.1-1.2,0.3-1.8c0.2-0.5,0.5-1,0.8-1.4
						c0.4-0.4,0.8-0.7,1.4-0.9c0.5-0.2,1.1-0.3,1.7-0.3v1.5h0c-0.5,0-1,0.2-1.3,0.6C133.2,487.1,133,487.6,132.9,488.4"/>
					<path fill-rule="evenodd" clip-rule="evenodd" fill="#FFCE54" d="M144.6,488.4h2c-0.1-0.7-0.3-1.3-0.6-1.7
						c-0.4-0.4-0.8-0.6-1.4-0.6v-1.5h0.1c0.9,0,1.6,0.2,2.2,0.5c0.6,0.4,1.1,0.8,1.4,1.4c0.3,0.6,0.5,1.1,0.5,1.7
						c0,0.5-0.2,0.9-0.5,1.1c-0.3,0.2-0.8,0.2-1.3,0.2h-2.3V488.4z M144.6,493.5V492c0.1,0,0.1,0,0.2,0c0.3,0,0.5,0,0.7-0.1
						c0.2-0.1,0.4-0.2,0.6-0.3c0.2-0.1,0.4-0.3,0.6-0.4c0.2-0.1,0.4-0.3,0.7-0.6c0.1-0.1,0.3-0.1,0.5-0.1c0.2,0,0.4,0.1,0.5,0.2
						c0.1,0.1,0.2,0.3,0.2,0.5c0,0.2-0.1,0.4-0.2,0.7c-0.2,0.3-0.4,0.5-0.7,0.8c-0.3,0.2-0.7,0.4-1.2,0.6c-0.5,0.2-1,0.2-1.6,0.2
						C144.8,493.5,144.7,493.5,144.6,493.5 M142.7,488.4h2v1.2h-2c0,0.5,0.1,0.9,0.3,1.3c0.2,0.4,0.5,0.7,0.8,0.9
						c0.3,0.2,0.6,0.3,0.9,0.3v1.4c-1.3,0-2.3-0.4-3-1.2c-0.8-0.8-1.2-1.9-1.2-3.2c0-0.6,0.1-1.2,0.3-1.8c0.2-0.5,0.5-1,0.8-1.4
						c0.4-0.4,0.8-0.7,1.4-0.9c0.5-0.2,1.1-0.3,1.7-0.3v1.5h0c-0.5,0-1,0.2-1.3,0.6C142.9,487.1,142.7,487.6,142.7,488.4"/>
					<path fill-rule="evenodd" clip-rule="evenodd" fill="#FFCE54" d="M156.6,489c0-0.6-0.1-1.1-0.3-1.5c-0.2-0.4-0.4-0.7-0.7-0.9
						c-0.3-0.2-0.7-0.3-1-0.3h-0.1v-1.6c0.2,0,0.4,0,0.6,0c0.7,0,1.3,0.2,1.9,0.5c0.6,0.3,1,0.8,1.3,1.5c0.3,0.7,0.5,1.4,0.5,2.4
						c0,0.7-0.1,1.3-0.3,1.8c-0.2,0.6-0.4,1-0.8,1.4c-0.3,0.4-0.7,0.7-1.2,0.9c-0.5,0.2-0.9,0.3-1.4,0.3c-0.2,0-0.4,0-0.6,0v-1.6
						h0.1c0.4,0,0.7-0.1,1-0.3c0.3-0.2,0.6-0.5,0.7-0.9C156.5,490.1,156.6,489.6,156.6,489 M154.5,486.3c-0.6,0-1.1,0.2-1.5,0.7
						c-0.4,0.5-0.6,1.2-0.6,2.1c0,0.9,0.2,1.5,0.6,2c0.4,0.5,0.9,0.7,1.5,0.7v1.6c-0.4-0.1-0.7-0.2-1-0.3c-0.4-0.2-0.8-0.6-1.2-1.1
						v3.3c0,1-0.3,1.4-1,1.4c-0.4,0-0.7-0.1-0.8-0.4c-0.1-0.2-0.2-0.6-0.2-1.1v-9.4c0-0.4,0.1-0.7,0.3-0.9c0.2-0.2,0.4-0.3,0.7-0.3
						c0.3,0,0.6,0.1,0.7,0.3c0.2,0.2,0.3,0.5,0.3,0.9v0.3c0.4-0.5,0.8-0.9,1.3-1.1c0.3-0.1,0.6-0.3,0.9-0.3V486.3z"/>
					<path fill-rule="evenodd" clip-rule="evenodd" fill="#FFCE54" d="M162.7,485.9v6.3c0,0.4-0.1,0.8-0.3,1
						c-0.2,0.2-0.5,0.3-0.8,0.3c-0.3,0-0.6-0.1-0.8-0.3c-0.2-0.2-0.3-0.6-0.3-1v-6.2c0-0.4,0.1-0.8,0.3-1c0.2-0.2,0.5-0.3,0.8-0.3
						c0.3,0,0.6,0.1,0.8,0.3C162.6,485.2,162.7,485.5,162.7,485.9 M161.6,483.6c-0.3,0-0.6-0.1-0.8-0.3c-0.2-0.2-0.3-0.5-0.3-0.8
						c0-0.3,0.1-0.6,0.3-0.8c0.2-0.2,0.5-0.3,0.8-0.3c0.3,0,0.5,0.1,0.8,0.3c0.2,0.2,0.3,0.4,0.3,0.8c0,0.3-0.1,0.6-0.3,0.8
						C162.2,483.5,161.9,483.6,161.6,483.6"/>
					<path fill-rule="evenodd" clip-rule="evenodd" fill="#FFCE54" d="M170.4,492.5l-1.9-3.2l-1.2,1.1v1.7c0,0.4-0.1,0.7-0.3,1
						c-0.2,0.2-0.5,0.3-0.8,0.3c-0.3,0-0.6-0.1-0.8-0.3c-0.2-0.2-0.3-0.6-0.3-1v-9.3c0-0.5,0.1-0.9,0.3-1.1c0.2-0.3,0.5-0.4,0.8-0.4
						c0.3,0,0.6,0.1,0.8,0.3c0.2,0.2,0.3,0.6,0.3,1v5.3l2.5-2.6c0.3-0.3,0.5-0.5,0.7-0.7c0.2-0.1,0.4-0.2,0.6-0.2
						c0.3,0,0.5,0.1,0.7,0.3c0.2,0.2,0.3,0.4,0.3,0.6c0,0.3-0.3,0.7-0.9,1.3l-1.2,1.1l2.2,3.5c0.2,0.3,0.3,0.5,0.4,0.6
						c0.1,0.1,0.1,0.3,0.1,0.4c0,0.3-0.1,0.6-0.3,0.8c-0.2,0.2-0.4,0.3-0.7,0.3c-0.3,0-0.5-0.1-0.6-0.2
						C170.8,493.1,170.6,492.9,170.4,492.5"/>
					<path fill-rule="evenodd" clip-rule="evenodd" fill="#FFCE54" d="M175.8,493.5c-0.3,0-0.6-0.1-0.9-0.3
						c-0.2-0.2-0.4-0.5-0.4-0.9c0-0.3,0.1-0.6,0.3-0.8c0.2-0.2,0.5-0.3,0.8-0.3c0.3,0,0.6,0.1,0.9,0.3c0.2,0.2,0.4,0.5,0.4,0.8
						c0,0.4-0.1,0.7-0.4,0.9C176.4,493.4,176.1,493.5,175.8,493.5"/>
					<path fill-rule="evenodd" clip-rule="evenodd" fill="#FFCE54" d="M187.3,490.8c0,0.3-0.1,0.6-0.2,0.9c-0.2,0.3-0.4,0.6-0.7,0.9
						c-0.3,0.3-0.8,0.5-1.3,0.7c-0.5,0.2-1.1,0.3-1.7,0.3c-1.3,0-2.4-0.4-3.2-1.2c-0.8-0.8-1.1-1.8-1.1-3.2c0-0.9,0.2-1.7,0.5-2.4
						c0.3-0.7,0.8-1.2,1.5-1.6c0.7-0.4,1.4-0.6,2.3-0.6c0.6,0,1.1,0.1,1.6,0.2c0.5,0.2,0.9,0.4,1.2,0.6c0.3,0.3,0.6,0.5,0.8,0.8
						c0.2,0.3,0.3,0.6,0.3,0.8c0,0.3-0.1,0.5-0.3,0.7c-0.2,0.2-0.4,0.3-0.7,0.3c-0.2,0-0.3,0-0.5-0.1c-0.1-0.1-0.3-0.2-0.4-0.5
						c-0.3-0.4-0.5-0.7-0.8-0.9c-0.3-0.2-0.7-0.3-1.1-0.3c-0.6,0-1.2,0.3-1.6,0.8c-0.4,0.5-0.6,1.2-0.6,2.1c0,0.4,0,0.8,0.2,1.1
						c0.1,0.3,0.2,0.6,0.4,0.9c0.2,0.2,0.4,0.4,0.7,0.6c0.3,0.1,0.6,0.2,0.9,0.2c0.4,0,0.8-0.1,1.1-0.3c0.3-0.2,0.6-0.5,0.8-0.9
						c0.1-0.2,0.3-0.4,0.4-0.6c0.1-0.1,0.3-0.2,0.6-0.2c0.3,0,0.5,0.1,0.7,0.3C187.2,490.4,187.3,490.6,187.3,490.8"/>
					<path fill-rule="evenodd" clip-rule="evenodd" fill="#FFCE54" d="M195.1,489.1c0-0.9-0.2-1.6-0.6-2.1c-0.4-0.5-0.9-0.7-1.6-0.7
						v-1.6c0.7,0,1.3,0.1,1.8,0.3c0.5,0.2,1,0.5,1.4,0.9c0.4,0.4,0.7,0.9,0.9,1.4c0.2,0.5,0.3,1.1,0.3,1.8c0,0.6-0.1,1.2-0.3,1.8
						c-0.2,0.6-0.5,1-0.9,1.4c-0.4,0.4-0.8,0.7-1.4,0.9c-0.5,0.2-1.1,0.3-1.8,0.3v-1.6c0.7,0,1.2-0.2,1.6-0.7
						C194.9,490.6,195.1,489.9,195.1,489.1 M193,486.2L193,486.2c-0.4,0-0.8,0.1-1.1,0.3c-0.3,0.2-0.6,0.5-0.8,1
						c-0.2,0.4-0.3,0.9-0.3,1.5c0,0.6,0.1,1.1,0.3,1.5c0.2,0.4,0.4,0.7,0.7,1c0.3,0.2,0.7,0.3,1.1,0.3h0v1.6h0
						c-0.7,0-1.3-0.1-1.8-0.3c-0.5-0.2-1-0.5-1.4-0.9c-0.4-0.4-0.7-0.9-0.9-1.4c-0.2-0.5-0.3-1.1-0.3-1.8c0-0.7,0.1-1.3,0.3-1.8
						c0.2-0.5,0.5-1,0.9-1.4c0.4-0.4,0.8-0.7,1.4-0.9c0.5-0.2,1.1-0.3,1.8-0.3h0V486.2z"/>
					<path fill-rule="evenodd" clip-rule="evenodd" fill="#FFCE54" d="M206.3,489.2v2.9c0,0.5-0.1,0.8-0.3,1
						c-0.2,0.2-0.5,0.3-0.8,0.3c-0.3,0-0.6-0.1-0.8-0.3c-0.2-0.2-0.3-0.6-0.3-1v-3.5c0-0.5,0-1-0.1-1.3c0-0.3-0.1-0.6-0.3-0.7
						c-0.2-0.2-0.4-0.3-0.8-0.3c-0.7,0-1.2,0.2-1.4,0.7c-0.2,0.5-0.3,1.2-0.3,2.1v2.9c0,0.5-0.1,0.8-0.3,1c-0.2,0.2-0.5,0.3-0.8,0.3
						c-0.3,0-0.6-0.1-0.8-0.3c-0.2-0.2-0.3-0.6-0.3-1v-6.2c0-0.4,0.1-0.7,0.3-0.9c0.2-0.2,0.4-0.3,0.7-0.3c0.3,0,0.6,0.1,0.7,0.3
						c0.2,0.2,0.3,0.5,0.3,0.8v0.2c0.4-0.4,0.8-0.8,1.2-1c0.4-0.2,0.9-0.3,1.4-0.3c0.5,0,1,0.1,1.4,0.3c0.4,0.2,0.7,0.5,1,1
						c0.4-0.4,0.8-0.8,1.2-1c0.4-0.2,0.9-0.3,1.4-0.3c0.6,0,1.1,0.1,1.5,0.3c0.4,0.2,0.8,0.6,1,1c0.2,0.4,0.3,1,0.3,1.9v4.3
						c0,0.5-0.1,0.8-0.3,1c-0.2,0.2-0.5,0.3-0.8,0.3c-0.3,0-0.6-0.1-0.8-0.3c-0.2-0.2-0.3-0.6-0.3-1v-3.7c0-0.5,0-0.8-0.1-1.1
						c0-0.3-0.1-0.5-0.3-0.7c-0.2-0.2-0.4-0.3-0.8-0.3c-0.3,0-0.6,0.1-0.8,0.3c-0.3,0.2-0.5,0.4-0.6,0.7
						C206.4,487.6,206.3,488.3,206.3,489.2"/>
					<path fill-rule="evenodd" clip-rule="evenodd" fill="#FFCE54" d="M101.6,479c0-0.1-0.1-0.3-0.1-0.4c0.7-0.1,1.2-0.9,0.9-1.6
						c-0.2-0.4-0.6-0.6-1-0.6h0c-0.3,0-0.7,0.2-0.9,0.5c-0.5,0.6-0.1,1.5,0.6,1.7c0,0.1,0.1,0.3,0.1,0.5c-1.1,0.1-2.2,0.3-3.1,0.9
						c0.1,0.3,0.2,0.5,0.3,0.8c1.9-0.8,3.9-0.6,5.9-0.4c0.1-0.3,0.1-0.5,0.2-0.8C103.5,479.2,102.6,479,101.6,479"/>
					<path fill-rule="evenodd" clip-rule="evenodd" fill="#FFCE54" d="M112.6,482c-0.3,0.1-0.3,0.5-0.3,0.8
						c-0.3,0.3-0.2,0.8-0.2,1.2c-0.1,0.2-0.3,0.2-0.5,0.3c-0.3-0.4-0.5-0.8-0.9-1.1l0,0c-0.4-0.3-0.8-0.7-1.2-0.9
						c-0.3,0.4-0.7,0.7-1,1.1c0.7,0.7,1.3,1.5,1.8,2.3c0.4,0.6,0.7,1.3,0.9,2c0.6-0.3,1.1-0.6,1.7-0.9c-0.3-0.7-0.6-1.3-1-2
						c0.2-0.1,0.6-0.3,0.6-0.6c0-0.4-0.1-0.7,0.2-1c0.4,0.3,1.1,0,1.1-0.6C113.7,482.1,113.1,481.7,112.6,482"/>
					<path fill-rule="evenodd" clip-rule="evenodd" fill="#FFCE54" d="M108.3,486.5c-0.1,0.9-1,1.7-1.9,1.6v3.6
						c1.7-0.5,3.3-1.1,4.8-2c0,0-0.3-1.8-1.6-3.7c-0.7-1.2-1.5-2.4-2.6-3.3c-0.2-0.2-0.5-0.4-0.7-0.5v2.1c0.2,0,0.5,0,0.7,0.1
						C107.9,484.7,108.5,485.6,108.3,486.5 M106.4,488.1L106.4,488.1c-0.5,0-1-0.2-1.4-0.6c-0.3-0.3-0.5-0.7-0.5-1.1
						c-0.1-0.9,0.5-1.9,1.4-2.1c0.2-0.1,0.3-0.1,0.5-0.1v-2.1c-1.1-0.8-2.4-1.3-3.8-1.3c-1.7,0-3.4,0.2-4.9,0.7v2
						c0.3,0,0.6,0,0.9,0.1c0.3,0.1,0.6,0.2,0.9,0.4c0.6,0.4,1,1,1.2,1.7c0.3,0.9,0.1,1.8-0.4,2.6c-0.4,0.5-0.9,0.9-1.5,1.2
						c-0.3,0.1-0.7,0.2-1.1,0.2v2.7l0.1,0c1.9,0.1,3.9,0.1,5.8-0.2c0.9-0.1,1.9-0.3,2.8-0.6V488.1z M97.7,481.6v2
						c-0.5,0-1,0.1-1.4,0.4c-0.9,0.5-1.6,1.5-1.6,2.5c-0.1,0.8,0.3,1.7,0.8,2.3c0.6,0.6,1.4,0.9,2.2,0.9v2.7c-1.9-0.1-3.9-0.5-5.8-1
						c-0.3-1.7-0.4-3.6,0.4-5.3c0.8-1.8,2.4-3.2,4.2-4C96.9,481.9,97.3,481.8,97.7,481.6"/>
					<path fill-rule="evenodd" clip-rule="evenodd" fill="#FFCE54" d="M92.4,483.4c-0.8,0.5-1.4,1.1-2,1.9c-0.2-0.3-0.2-0.6-0.4-0.9
						c-0.1-0.2-0.3-0.1-0.5-0.1c-0.2,0-0.4,0-0.6-0.1c0.2-0.3,0.2-0.8-0.2-1c-0.4-0.3-0.9,0-1,0.4c-0.2,0.5,0.4,1,0.8,0.8
						c0.3,0.4,0.7,0.3,1.1,0.3c0.2,0.3,0.3,0.6,0.5,0.9c-0.4,0.8-0.7,1.7-0.7,2.7c0.5,0.2,1.1,0.5,1.6,0.7c0-0.6,0.1-1.2,0.2-1.7
						c0.2-1.3,0.9-2.3,1.8-3.2C92.8,483.8,92.6,483.6,92.4,483.4"/>
					<path fill-rule="evenodd" clip-rule="evenodd" fill="#FFCE54" d="M104.9,492.8c-2,0.4-4,0.6-6,0.5c-1.4-0.1-2.7-0.2-4.1-0.5
						c-0.9-0.2-1.9-0.5-2.8-0.7c0.1,1.2,0.6,2.3,1.3,3.3c0.8,1.1,1.9,2.2,3.2,2.6c1,0.3,2.1,0.6,4.1,0.6h0.2l0.2,0
						c1.8,0,3.5-0.3,5.1-0.9c1-0.4,2-1,2.8-1.8c0.7-0.7,1.3-1.5,1.6-2.4c0.4-0.8,0.7-2.3,0.7-3.1
						C109.3,491.5,107.1,492.4,104.9,492.8"/>
				</g>
			</g>
		</g>
	</g>
</g>
</svg>
