<svg width="45" height="40" viewBox="0 0 45 40" fill="none" xmlns="http://www.w3.org/2000/svg">
<path d="M16.4057 27.2175C23.1455 32.5113 30.6537 34.1999 33.1756 30.9891L36.4927 27.5575L36.6303 25.5004L36.6519 23.0977L34.3188 18.1733L29.8759 13.3064L27.5844 11.3253L20.2981 7.6789L15.464 6.58075L11.1754 7.72447L8.76844 11.8185C6.24651 15.0293 9.66581 21.9237 16.4057 27.2175Z" fill="url(#paint0_linear)"/>
<ellipse cx="23.1595" cy="18.4105" rx="12.3247" ry="5.80423" transform="rotate(38.1477 23.1595 18.4105)" fill="#837542"/>
<ellipse cx="23.0005" cy="18.6018" rx="12.3247" ry="5.45438" transform="rotate(38.1477 23.0005 18.6018)" fill="#EDD06D"/>
<path fill-rule="evenodd" clip-rule="evenodd" d="M19.3723 23.1894C26.3745 28.6893 34.0953 30.5449 36.6173 27.3341C39.1392 24.1233 35.5072 17.0619 28.505 11.562C21.5028 6.06215 13.782 4.20652 11.26 7.41735C8.7381 10.6282 12.3701 17.6896 19.3723 23.1894ZM20.9054 21.5248C26.4031 25.8429 32.465 27.2998 34.4451 24.7789C36.4251 22.258 33.5735 16.7138 28.0758 12.3956C22.5781 8.07748 16.5162 6.62056 14.5361 9.1415C12.5561 11.6624 15.4077 17.2066 20.9054 21.5248Z" fill="#FFFB9F"/>
<defs>
<linearGradient id="paint0_linear" x1="9.39745" y1="9.65202" x2="35.097" y2="30.0073" gradientUnits="userSpaceOnUse">
<stop stop-color="#7E6526"/>
<stop offset="0.537059" stop-color="#5E4F2D"/>
<stop offset="1" stop-color="#5B4716"/>
</linearGradient>
</defs>
</svg>
