<svg width="154" height="41" viewBox="0 0 154 41" fill="none" xmlns="http://www.w3.org/2000/svg">
<circle cx="111" cy="20" r="11.5" stroke="#F9FCF6" stroke-width="3"/>
<circle cx="111" cy="19.9999" r="8.34" stroke="#F9FCF6"/>
<path fill-rule="evenodd" clip-rule="evenodd" d="M96.2508 13.7493C94.6511 12.1496 92.4411 11.1602 90 11.1602C85.1178 11.1602 81.16 15.118 81.16 20.0002C81.16 24.8824 85.1178 28.8402 90 28.8402C92.4411 28.8402 94.6511 27.8507 96.2509 26.251L95.5438 25.5439C94.125 26.9626 92.165 27.8402 90 27.8402C85.6701 27.8402 82.16 24.3301 82.16 20.0002C82.16 15.6702 85.6701 12.1602 90 12.1602C92.165 12.1602 94.125 13.0377 95.5437 14.4564L96.2508 13.7493Z" fill="#DBFF00"/>
<path fill-rule="evenodd" clip-rule="evenodd" d="M97.0711 27.0711C95.2614 28.8807 92.7614 30 90 30C84.4772 30 80 25.5228 80 20C80 14.4772 84.4772 10 90 10C92.7614 10 95.2614 11.1193 97.0711 12.9289L99.1924 10.8076C96.8399 8.45507 93.5899 7 90 7C82.8203 7 77 12.8203 77 20C77 27.1797 82.8203 33 90 33C93.5899 33 96.8399 31.5449 99.1924 29.1924L97.0711 27.0711Z" fill="#DBFF00"/>
<path d="M12.4453 18.0938C13.9219 18.0938 15.0703 17.8887 15.8906 17.4785C17.1797 16.834 17.8242 15.6738 17.8242 13.998C17.8242 12.3105 17.1387 11.1738 15.7676 10.5879C14.9941 10.2598 13.8457 10.0957 12.3223 10.0957H6.08203V18.0938H12.4453ZM13.623 30.0117C15.7676 30.0117 17.2969 29.3906 18.2109 28.1484C18.7852 27.3633 19.0723 26.4141 19.0723 25.3008C19.0723 23.4258 18.2344 22.1484 16.5586 21.4688C15.668 21.1055 14.4902 20.9238 13.0254 20.9238H6.08203V30.0117H13.623ZM2.6543 7.17773H13.7461C16.7695 7.17773 18.9199 8.08008 20.1973 9.88477C20.9473 10.9512 21.3223 12.1816 21.3223 13.5762C21.3223 15.2051 20.8594 16.541 19.9336 17.584C19.4531 18.1348 18.7617 18.6387 17.8594 19.0957C19.1836 19.5996 20.1738 20.168 20.8301 20.8008C21.9902 21.9258 22.5703 23.4785 22.5703 25.459C22.5703 27.123 22.0488 28.6289 21.0059 29.9766C19.4473 31.9922 16.9688 33 13.5703 33H2.6543V7.17773ZM34.1719 13.752C35.5078 13.752 36.8027 14.0684 38.0566 14.7012C39.3105 15.3223 40.2656 16.1309 40.9219 17.127C41.5547 18.0762 41.9766 19.1836 42.1875 20.4492C42.375 21.3164 42.4688 22.6992 42.4688 24.5977H28.6699C28.7285 26.5078 29.1797 28.043 30.0234 29.2031C30.8672 30.3516 32.1738 30.9258 33.9434 30.9258C35.5957 30.9258 36.9141 30.3809 37.8984 29.291C38.4609 28.6582 38.8594 27.9258 39.0938 27.0938H42.2051C42.123 27.7852 41.8477 28.5586 41.3789 29.4141C40.9219 30.2578 40.4062 30.9492 39.832 31.4883C38.8711 32.4258 37.6816 33.0586 36.2637 33.3867C35.502 33.5742 34.6406 33.668 33.6797 33.668C31.3359 33.668 29.3496 32.8184 27.7207 31.1191C26.0918 29.4082 25.2773 27.0176 25.2773 23.9473C25.2773 20.9238 26.0977 18.4688 27.7383 16.582C29.3789 14.6953 31.5234 13.752 34.1719 13.752ZM39.2168 22.084C39.0879 20.7129 38.7891 19.6172 38.3203 18.7969C37.4531 17.2734 36.0059 16.5117 33.9785 16.5117C32.5254 16.5117 31.3066 17.0391 30.3223 18.0938C29.3379 19.1367 28.8164 20.4668 28.7578 22.084H39.2168ZM54.2109 13.752C55.5469 13.752 56.8418 14.0684 58.0957 14.7012C59.3496 15.3223 60.3047 16.1309 60.9609 17.127C61.5938 18.0762 62.0156 19.1836 62.2266 20.4492C62.4141 21.3164 62.5078 22.6992 62.5078 24.5977H48.709C48.7676 26.5078 49.2188 28.043 50.0625 29.2031C50.9062 30.3516 52.2129 30.9258 53.9824 30.9258C55.6348 30.9258 56.9531 30.3809 57.9375 29.291C58.5 28.6582 58.8984 27.9258 59.1328 27.0938H62.2441C62.1621 27.7852 61.8867 28.5586 61.418 29.4141C60.9609 30.2578 60.4453 30.9492 59.8711 31.4883C58.9102 32.4258 57.7207 33.0586 56.3027 33.3867C55.541 33.5742 54.6797 33.668 53.7188 33.668C51.375 33.668 49.3887 32.8184 47.7598 31.1191C46.1309 29.4082 45.3164 27.0176 45.3164 23.9473C45.3164 20.9238 46.1367 18.4688 47.7773 16.582C49.418 14.6953 51.5625 13.752 54.2109 13.752ZM59.2559 22.084C59.127 20.7129 58.8281 19.6172 58.3594 18.7969C57.4922 17.2734 56.0449 16.5117 54.0176 16.5117C52.5645 16.5117 51.3457 17.0391 50.3613 18.0938C49.377 19.1367 48.8555 20.4668 48.7969 22.084H59.2559ZM66.498 14.1738H69.5039V17.4258C69.75 16.793 70.3535 16.0254 71.3145 15.123C72.2754 14.209 73.3828 13.752 74.6367 13.752C74.6953 13.752 74.7949 13.7578 74.9355 13.7695C75.0762 13.7813 75.3164 13.8047 75.6562 13.8398V17.1797C75.4688 17.1445 75.293 17.1211 75.1289 17.1094C74.9766 17.0977 74.8066 17.0918 74.6191 17.0918C73.0254 17.0918 71.8008 17.6074 70.9453 18.6387C70.0898 19.6582 69.6621 20.8359 69.6621 22.1719V33H66.498V14.1738Z" fill="white"/>
<path d="M126.78 33V7.08H129.228V33H126.78ZM134.784 10.392H134.712V33H132.264V7.08H135.036L150.012 29.724H150.084V7.08H152.532V33H149.688L134.784 10.392Z" fill="white"/>
<path d="M23 22C23.5 23 23.7007 23.6804 23.7007 25H65.5V22H23Z" fill="white"/>
</svg>
