<svg width="22" height="27" viewBox="0 0 22 27" fill="none" xmlns="http://www.w3.org/2000/svg">
<path d="M17.3518 13.1739V20.1304M0.830078 4.47826C0.975006 4.11594 1.3953 3.30435 1.91703 2.95652C2.43877 2.6087 3.14892 3.10145 3.43877 3.3913C3.22138 3.31884 3.22137 3 4.96051 2.30435C6.69966 1.6087 6.69965 2.15942 6.48225 2.52174C6.84457 2.01449 8.04747 1 9.96051 1C11.8736 1 12.2069 2.01449 12.1344 2.52174C12.4967 2.30435 13.4388 1.95652 14.3083 2.30435C15.3953 2.73913 15.1779 3.39131 16.0475 4.26087C16.917 5.13044 17.7866 4.26087 18.4388 4.69565C19.091 5.13044 18.6562 6.43478 17.7866 7.30435C17.6478 7.44315 17.5009 7.53811 17.3518 7.59888M17.3518 20.1304V22.087C17.6416 22.6667 18.1344 24.0435 17.7866 24.913C17.4388 25.7826 16.3373 26 15.8301 26H2.78658C2.3518 25.9275 1.43875 25.6087 1.26484 24.913C1.04745 24.0435 2.13441 23.1739 2.13441 22.087C2.13441 21.2174 2.13441 11.2899 2.13441 6.43478C2.64166 7.15942 3.91703 8.56522 4.96051 8.39131C6.26486 8.17391 6.48225 8.39131 7.56921 8.39131C8.65616 8.39131 9.09095 8.3913 9.09095 9.69565C9.09095 10.7391 9.09095 12.4493 9.09095 13.1739C9.09095 13.6087 9.26486 14.4783 9.96051 14.4783C10.8301 14.4783 11.2649 14.4783 11.4823 13.1739C11.6562 12.1304 11.6996 10.1304 11.6996 9.26087C11.7721 8.97102 12.1779 8.39131 13.2214 8.39131C14.2649 8.39131 15.3953 7.66667 15.8301 7.30435C16.1201 7.53637 16.7537 7.84268 17.3518 7.59888M17.3518 20.1304C17.6417 19.7681 18.3953 19 19.0909 18.8261C19.9605 18.6087 21.0475 18.6087 21.0475 17.7391C21.0475 17.0435 21.0475 13.2464 21.0475 11.4348C20.975 11.1449 20.5692 10.5652 19.5257 10.5652C18.4822 10.5652 17.6417 10.5652 17.3518 10.5652V7.59888" stroke="#fff" stroke-width="1.30435" stroke-linecap="round" stroke-linejoin="round"/>
<line x1="13.6566" y1="13.3913" x2="13.6566" y2="21.6522" stroke="#fff" stroke-width="1.30435" stroke-linecap="round"/>
<line x1="9.74348" y1="16.8696" x2="9.74348" y2="21.6522" stroke="#fff" stroke-width="1.30435" stroke-linecap="round"/>
<line x1="5.8304" y1="13.3913" x2="5.8304" y2="21.6522" stroke="#fff" stroke-width="1.30435" stroke-linecap="round"/>
</svg>
