<svg width="20" height="15" viewBox="0 0 20 15" fill="none" xmlns="http://www.w3.org/2000/svg">
<path d="M19 2.99999H6C5.4 2.99999 5 2.59999 5 1.99999C5 1.39999 5.4 0.999993 6 0.999993H19C19.6 0.999993 20 1.39999 20 1.99999C20 2.59999 19.6 2.99999 19 2.99999Z" fill="#32D35E"/>
<path d="M19 8.99999H6C5.4 8.99999 5 8.59999 5 7.99999C5 7.39999 5.4 6.99999 6 6.99999H19C19.6 6.99999 20 7.39999 20 7.99999C20 8.59999 19.6 8.99999 19 8.99999Z" fill="#32D35E"/>
<path d="M19 15H6C5.4 15 5 14.6 5 14C5 13.4 5.4 13 6 13H19C19.6 13 20 13.4 20 14C20 14.6 19.6 15 19 15Z" fill="#32D35E"/>
<path d="M1 2.99999C0.9 2.99999 0.9 2.99999 0.8 2.99999C0.7 2.99999 0.7 2.99999 0.6 2.89999C0.5 2.89999 0.5 2.79999 0.4 2.79999C0.3 2.79999 0.3 2.69999 0.3 2.69999C0.2 2.59999 0.0999999 2.49999 0.0999999 2.39999C-9.68575e-08 2.29999 0 2.09999 0 1.99999C0 1.89999 -9.68575e-08 1.69999 0.0999999 1.59999C0.2 1.49999 0.2 1.39999 0.3 1.29999C0.6 0.999993 1 0.899993 1.4 1.09999C1.5 1.19999 1.6 1.19999 1.7 1.29999C1.9 1.49999 2 1.69999 2 1.99999C2 2.29999 1.9 2.49999 1.7 2.69999C1.5 2.89999 1.3 2.99999 1 2.99999Z" fill="#32D35E"/>
<path d="M1 8.99999C0.7 8.99999 0.5 8.89999 0.3 8.69999C0.0999999 8.49999 0 8.29999 0 7.99999C0 7.89999 0 7.89999 0 7.79999C0 7.69999 -9.68575e-08 7.69999 0.0999999 7.59999C0.0999999 7.49999 0.2 7.49999 0.2 7.39999C0.2 7.29999 0.3 7.29999 0.3 7.29999C0.4 7.19999 0.5 7.09999 0.6 7.09999C1 6.89999 1.4 6.99999 1.7 7.29999L1.8 7.39999C1.8 7.49999 1.9 7.49999 1.9 7.59999C1.9 7.69999 1.9 7.69999 2 7.79999C2 7.89999 2 7.89999 2 7.99999C2 8.29999 1.9 8.49999 1.7 8.69999C1.5 8.89999 1.3 8.99999 1 8.99999Z" fill="#32D35E"/>
<path d="M1 15C0.7 15 0.5 14.9 0.3 14.7C0.0999999 14.5 0 14.3 0 14C0 13.9 -9.68575e-08 13.7 0.0999999 13.6C0.2 13.5 0.2 13.4 0.3 13.3C0.7 12.9 1.3 12.9 1.7 13.3C1.9 13.5 2 13.7 2 14C2 14.3 1.9 14.5 1.7 14.7C1.5 14.9 1.3 15 1 15Z" fill="#32D35E"/>
</svg>
