<svg width="110" height="47" viewBox="0 0 110 47" fill="none" xmlns="http://www.w3.org/2000/svg">
<path d="M71.6755 29.56C73.5654 30.1887 75.7227 30.0833 77.6717 29.0963C81.4672 27.1741 83.0351 22.6362 81.1737 18.9606C79.3122 15.285 74.7263 13.8636 70.9308 15.7858C69.2129 16.6558 67.9513 18.0617 67.2575 19.681" stroke="white"/>
<path d="M70.952 32.4993C73.6247 33.4364 76.6606 33.3248 79.3868 31.9442C84.696 29.2554 86.8203 22.7718 84.1315 17.4626C81.4428 12.1534 74.9592 10.0291 69.65 12.7179C67.2469 13.9349 65.4964 15.9293 64.5492 18.2404" stroke="white" stroke-width="3"/>
<path d="M13.5352 27.9551C13.5352 27.0762 13.2012 26.3965 12.5332 25.916C11.877 25.4238 10.7227 25.002 9.07031 24.6504C7.42969 24.2988 6.12305 23.877 5.15039 23.3848C4.18945 22.8926 3.47461 22.3066 3.00586 21.627C2.54883 20.9473 2.32031 20.1387 2.32031 19.2012C2.32031 17.6426 2.97656 16.3242 4.28906 15.2461C5.61328 14.168 7.30078 13.6289 9.35156 13.6289C11.5078 13.6289 13.2539 14.1855 14.5898 15.2988C15.9375 16.4121 16.6113 17.8359 16.6113 19.5703H13.3418C13.3418 18.6797 12.9609 17.9121 12.1992 17.2676C11.4492 16.623 10.5 16.3008 9.35156 16.3008C8.16797 16.3008 7.24219 16.5586 6.57422 17.0742C5.90625 17.5898 5.57227 18.2637 5.57227 19.0957C5.57227 19.8809 5.88281 20.4727 6.50391 20.8711C7.125 21.2695 8.24414 21.6504 9.86133 22.0137C11.4902 22.377 12.8086 22.8105 13.8164 23.3145C14.8242 23.8184 15.5684 24.4277 16.0488 25.1426C16.541 25.8457 16.7871 26.707 16.7871 27.7266C16.7871 29.4258 16.1074 30.791 14.748 31.8223C13.3887 32.8418 11.625 33.3516 9.45703 33.3516C7.93359 33.3516 6.58594 33.082 5.41406 32.543C4.24219 32.0039 3.32227 31.2539 2.6543 30.293C1.99805 29.3203 1.66992 28.2715 1.66992 27.1465H4.92188C4.98047 28.2363 5.41406 29.1035 6.22266 29.748C7.04297 30.3809 8.12109 30.6973 9.45703 30.6973C10.6875 30.6973 11.6719 30.4512 12.4102 29.959C13.1602 29.4551 13.5352 28.7871 13.5352 27.9551ZM37.8633 28.5176L41.5195 13.9805H44.7715L39.2344 33H36.5977L31.9746 18.5859L27.4746 33H24.8379L19.3184 13.9805H22.5527L26.2969 28.2188L30.7266 13.9805H33.3457L37.8633 28.5176ZM51.627 33H48.375V13.9805H51.627V33ZM48.1113 8.93555C48.1113 8.4082 48.2695 7.96289 48.5859 7.59961C48.9141 7.23633 49.3945 7.05469 50.0273 7.05469C50.6602 7.05469 51.1406 7.23633 51.4688 7.59961C51.7969 7.96289 51.9609 8.4082 51.9609 8.93555C51.9609 9.46289 51.7969 9.90234 51.4688 10.2539C51.1406 10.6055 50.6602 10.7812 50.0273 10.7812C49.3945 10.7812 48.9141 10.6055 48.5859 10.2539C48.2695 9.90234 48.1113 9.46289 48.1113 8.93555Z" fill="white"/>
<path d="M100.354 33.3516C97.7754 33.3516 95.6777 32.5078 94.0605 30.8203C92.4434 29.1211 91.6348 26.8535 91.6348 24.0176V23.4199C91.6348 21.5332 91.9922 19.8516 92.707 18.375C93.4336 16.8867 94.4414 15.7266 95.7305 14.8945C97.0312 14.0508 98.4375 13.6289 99.9492 13.6289C102.422 13.6289 104.344 14.4434 105.715 16.0723C107.086 17.7012 107.771 20.0332 107.771 23.0684V24.4219H94.8867C94.9336 26.2969 95.4785 27.8145 96.5215 28.9746C97.5762 30.123 98.9121 30.6973 100.529 30.6973C101.678 30.6973 102.65 30.4629 103.447 29.9941C104.244 29.5254 104.941 28.9043 105.539 28.1309L107.525 29.6777C105.932 32.127 103.541 33.3516 100.354 33.3516ZM99.9492 16.3008C98.6367 16.3008 97.5352 16.7812 96.6445 17.7422C95.7539 18.6914 95.2031 20.0273 94.9922 21.75H104.52V21.5039C104.426 19.8516 103.98 18.5742 103.184 17.6719C102.387 16.7578 101.309 16.3008 99.9492 16.3008Z" fill="white"/>
<path d="M58 27.6604L64 22M64 22L70 27.6604M64 22V47" stroke="white" stroke-width="2" stroke-linejoin="round"/>
</svg>
